<svg width="183" height="38" viewBox="0 0 183 38" fill="none" xmlns="http://www.w3.org/2000/svg">
<path d="M28.8438 28.4531C28.5312 28.7656 28.3281 29.1406 28.2344 29.5781C28.1719 29.9844 27.9688 30.3438 27.625 30.6562C27.6875 30.8125 27.7188 30.9062 27.7188 30.9375C27.7188 30.9688 27.6875 31.0469 27.625 31.1719C27.4688 31.3281 27.3281 31.4688 27.2031 31.5938C27.0781 31.7188 26.9844 31.8906 26.9219 32.1094C26.8281 32.1719 26.7344 32.25 26.6406 32.3438C26.5781 32.4062 26.4688 32.4531 26.3125 32.4844C26.3125 32.6406 26.2656 32.7812 26.1719 32.9062C26.1094 33.0312 26.0938 33.1719 26.125 33.3281C25.9375 33.2969 25.8281 33.3594 25.7969 33.5156C25.7656 33.6406 25.6406 33.6719 25.4219 33.6094C25.3281 33.6719 25.2344 33.7344 25.1406 33.7969C25.0469 33.8281 24.9688 33.9062 24.9062 34.0312C24.75 33.9062 24.5938 33.9219 24.4375 34.0781C24.3125 34.2344 24.1094 34.3125 23.8281 34.3125C23.4531 34.5312 23.1562 34.6406 22.9375 34.6406C22.7188 34.6406 22.5312 34.7344 22.375 34.9219C22.2812 34.9531 22.2031 34.9375 22.1406 34.875C22.0781 34.8125 21.9844 34.7969 21.8594 34.8281C21.8281 34.9531 21.75 35.0156 21.625 35.0156C21.5312 34.9844 21.4375 34.9844 21.3438 35.0156C21.0938 35.2656 20.9062 35.3906 20.7812 35.3906C20.6875 35.3594 20.6719 35.4062 20.7344 35.5312C20.4219 35.5625 20.0469 35.6406 19.6094 35.7656C19.2031 35.8594 18.875 35.8125 18.625 35.625C18.4062 35.6875 18.2031 35.7188 18.0156 35.7188C17.8281 35.7188 17.6406 35.7188 17.4531 35.7188C17.2969 35.7188 17.2031 35.7812 17.1719 35.9062C17.1406 36.0312 17.0469 36.0781 16.8906 36.0469C16.6406 35.9219 16.4375 35.8906 16.2812 35.9531C16.125 36.0156 15.9688 36.0469 15.8125 36.0469C15.6562 36.0781 15.4844 36.1094 15.2969 36.1406C15.1406 36.2031 15 36.2812 14.875 36.375C14.625 36.2812 14.3906 36.2656 14.1719 36.3281C13.9531 36.3906 13.7344 36.3281 13.5156 36.1406C13.3594 36.2969 13.1719 36.3281 12.9531 36.2344C12.7656 36.1719 12.5625 36.1406 12.3438 36.1406C12.1875 36.1406 12.0469 36.1719 11.9219 36.2344C11.7969 36.2969 11.6562 36.3438 11.5 36.375C11.3438 36.4062 11.2031 36.4062 11.0781 36.375C10.9844 36.375 10.8594 36.375 10.7031 36.375C10.5781 36.375 10.4688 36.3906 10.375 36.4219C10.2812 36.4531 10.1875 36.4688 10.0938 36.4688C9.875 36.4688 9.67188 36.4375 9.48438 36.375C9.29688 36.3438 9.10938 36.3281 8.92188 36.3281C8.70312 36.3281 8.48438 36.375 8.26562 36.4688C8.07812 36.5625 7.875 36.6094 7.65625 36.6094C7.375 36.6094 7.10938 36.5625 6.85938 36.4688C6.60938 36.4062 6.35938 36.375 6.10938 36.375C5.82812 36.375 5.54688 36.4062 5.26562 36.4688C5.01562 36.5312 4.75 36.5625 4.46875 36.5625C4.3125 36.5625 4.20312 36.5 4.14062 36.375C4.10938 36.2812 4.0625 36.2031 4 36.1406C3.90625 36.0781 3.79688 36.0312 3.67188 36C3.54688 35.9688 3.45312 35.9219 3.39062 35.8594C3.29688 35.7656 3.23438 35.6562 3.20312 35.5312C3.20312 35.375 3.09375 35.3125 2.875 35.3438C2.96875 34.875 3 34.5312 2.96875 34.3125C2.96875 34.0938 2.92188 33.9219 2.82812 33.7969C2.76562 33.6719 2.6875 33.5781 2.59375 33.5156C2.53125 33.4531 2.48438 33.3438 2.45312 33.1875C2.39062 33.125 2.3125 33.1094 2.21875 33.1406C2.125 33.1719 2.03125 33.125 1.9375 33C1.96875 32.7188 1.98438 32.4844 1.98438 32.2969C2.01562 32.1094 2.14062 31.9062 2.35938 31.6875C2.39062 31.5625 2.35938 31.4844 2.26562 31.4531C2.20312 31.3906 2.14062 31.3281 2.07812 31.2656C2.17188 31.0156 2.17188 30.7188 2.07812 30.375C2.01562 30 2.10938 29.7188 2.35938 29.5312C2.23438 29.3125 2.20312 29.0781 2.26562 28.8281C2.32812 28.5469 2.35938 28.2812 2.35938 28.0312C2.35938 27.75 2.34375 27.4375 2.3125 27.0938C2.28125 26.75 2.32812 26.4531 2.45312 26.2031C2.39062 25.9219 2.28125 25.6406 2.125 25.3594C2 25.0469 1.875 24.75 1.75 24.4688C1.75 24.3438 1.79688 24.2969 1.89062 24.3281C2.01562 24.3281 2.07812 24.2031 2.07812 23.9531C2.07812 23.7656 2.04688 23.5781 1.98438 23.3906C1.95312 23.2031 2.01562 23.0312 2.17188 22.875C2.10938 22.625 2 22.3281 1.84375 21.9844C1.71875 21.6406 1.75 21.3594 1.9375 21.1406L1.51562 20.0156C1.60938 19.6719 1.625 19.4688 1.5625 19.4062C1.5 19.3438 1.46875 19.2812 1.46875 19.2188C1.46875 19.0938 1.48438 18.9844 1.51562 18.8906C1.54688 18.7969 1.5625 18.6875 1.5625 18.5625C1.5625 18.2812 1.5625 18 1.5625 17.7188C1.5625 17.4375 1.53125 17.1562 1.46875 16.875C1.40625 16.6875 1.34375 16.5469 1.28125 16.4531C1.25 16.3281 1.23438 16.1562 1.23438 15.9375C1.23438 15.7812 1.20312 15.6875 1.14062 15.6562C1.07812 15.5938 1.04688 15.5 1.04688 15.375C1.10938 15.0625 1.125 14.8438 1.09375 14.7188C1.0625 14.5625 1.04688 14.4062 1.04688 14.25C1.04688 14.0938 1.07812 13.9375 1.14062 13.7812C1.20312 13.625 1.23438 13.4688 1.23438 13.3125C1.23438 13.1562 1.20312 13.0156 1.14062 12.8906C1.07812 12.7344 1.04688 12.6094 1.04688 12.5156C1.04688 12.3906 1.07812 12.2812 1.14062 12.1875C1.20312 12.0938 1.23438 11.9688 1.23438 11.8125C1.23438 11.4687 1.21875 11.2812 1.1875 11.25C1.15625 11.1875 1.14062 11.125 1.14062 11.0625C1.14062 10.8125 1.15625 10.5469 1.1875 10.2656C1.25 9.98438 1.20312 9.71875 1.04688 9.46875C1.01562 9.03125 0.984375 8.59375 0.953125 8.15625C0.953125 7.6875 0.953125 7.26562 0.953125 6.89062C0.953125 6.79688 0.96875 6.70312 1 6.60938C1.03125 6.51562 1.04688 6.40625 1.04688 6.28125C0.921875 6 0.921875 5.79687 1.04688 5.67188C0.953125 5.32812 0.9375 5.14062 1 5.10938C1.09375 5.04687 1.14062 4.9375 1.14062 4.78125C1.14062 4.625 1.125 4.5 1.09375 4.40625C1.0625 4.28125 1.07812 4.14063 1.14062 3.98438C1.07812 3.82812 0.984375 3.71875 0.859375 3.65625C0.734375 3.5625 0.65625 3.42188 0.625 3.23438C0.875 2.70312 1.17188 2.25 1.51562 1.875C1.85938 1.46875 2.34375 1.21875 2.96875 1.125C3.3125 0.875 3.5 0.8125 3.53125 0.9375C3.5625 1.0625 3.65625 1.125 3.8125 1.125C4.21875 1.125 4.57812 1.07812 4.89062 0.984375C5.20312 0.890625 5.57812 1 6.01562 1.3125C6.35938 1.25 6.6875 1.28125 7 1.40625C7.34375 1.5 7.6875 1.54688 8.03125 1.54688C8.28125 1.54688 8.5 1.51563 8.6875 1.45312C8.90625 1.39062 9.125 1.35938 9.34375 1.35938C9.75 1.35938 10.1406 1.42188 10.5156 1.54688C10.8906 1.67187 11.2812 1.73438 11.6875 1.73438C11.875 1.73438 12.0469 1.71875 12.2031 1.6875C12.3906 1.65625 12.5625 1.64062 12.7188 1.64062C13.0938 1.64062 13.4531 1.70313 13.7969 1.82812C14.1406 1.95312 14.5 2.0625 14.875 2.15625C15 2.1875 15.1094 2.20312 15.2031 2.20312C15.3281 2.17188 15.4531 2.1875 15.5781 2.25C15.7344 2.3125 15.8906 2.39062 16.0469 2.48438C16.2656 2.51562 16.4531 2.57812 16.6094 2.67188C16.7344 2.73438 16.8438 2.79687 16.9375 2.85938C17.0625 2.92188 17.1094 2.98437 17.0781 3.04688C17.4844 2.98437 17.7656 3.03125 17.9219 3.1875C18.1094 3.34375 18.375 3.40625 18.7188 3.375C18.7812 3.5 18.8594 3.60938 18.9531 3.70312C19.0781 3.76563 19.1406 3.89062 19.1406 4.07812C19.4531 4.23438 19.7031 4.45312 19.8906 4.73438C20.1094 4.98438 20.3594 5.20312 20.6406 5.39062C20.7031 5.45313 20.7812 5.48438 20.875 5.48438C21 5.48438 21.0938 5.51562 21.1562 5.57812C21.2188 5.64063 21.2656 5.71875 21.2969 5.8125C21.3281 5.875 21.375 5.9375 21.4375 6C21.7812 6.15625 21.9688 6.29688 22 6.42188C22.0625 6.51562 22.1875 6.54687 22.375 6.51562C22.3438 6.85938 22.3594 7.15625 22.4219 7.40625C22.5156 7.65625 22.7031 7.89063 22.9844 8.10938C22.8594 8.32812 22.7812 8.5 22.75 8.625C22.75 8.75 22.8281 8.78125 22.9844 8.71875C22.9219 8.90625 22.875 9.01563 22.8438 9.04688C22.8125 9.04688 22.7812 9.1875 22.75 9.46875C22.75 9.5625 22.8125 9.60938 22.9375 9.60938C23.0938 9.60938 23.1406 9.6875 23.0781 9.84375C22.9219 9.90625 22.8125 9.9375 22.75 9.9375C22.6875 9.9375 22.6562 10.0469 22.6562 10.2656C22.6562 10.3906 22.6875 10.4844 22.75 10.5469C22.8438 10.6094 22.9219 10.6875 22.9844 10.7812C22.9531 11.125 22.8281 11.5 22.6094 11.9062C22.4219 12.2812 22.3281 12.5312 22.3281 12.6562C22.4219 12.875 22.4375 13.0156 22.375 13.0781C22.3125 13.1094 22.2344 13.125 22.1406 13.125C22.2031 13.3125 22.1719 13.4531 22.0469 13.5469C21.9219 13.6094 21.8281 13.6719 21.7656 13.7344C21.6406 13.8906 21.5625 14.0625 21.5312 14.25C21.5312 14.4375 21.4062 14.5625 21.1562 14.625C21.1875 14.7812 21.1719 14.9062 21.1094 15C21.0781 15.0938 21.0156 15.2031 20.9219 15.3281C20.8594 15.4219 20.7969 15.5312 20.7344 15.6562C20.6719 15.75 20.6406 15.875 20.6406 16.0312C20.4219 16 20.2969 16.0469 20.2656 16.1719C20.2344 16.2969 20.125 16.3281 19.9375 16.2656C19.9062 16.6094 19.8281 16.8281 19.7031 16.9219C19.5781 16.9844 19.5156 17.125 19.5156 17.3438C19.5156 17.5312 19.5781 17.6875 19.7031 17.8125C19.8281 17.9062 19.9688 17.9844 20.125 18.0469C20.3125 18.1094 20.4844 18.1719 20.6406 18.2344C20.8281 18.2656 20.9688 18.3438 21.0625 18.4688C21.5 18.5 21.875 18.6094 22.1875 18.7969C22.5 18.9531 22.8281 19.1562 23.1719 19.4062C23.3594 19.375 23.5312 19.3906 23.6875 19.4531C23.875 19.5156 24.0469 19.5312 24.2031 19.5C24.3594 19.6875 24.4688 19.7969 24.5312 19.8281C24.625 19.8594 24.6875 19.9062 24.7188 19.9688C24.7812 20 24.8438 20.0469 24.9062 20.1094C24.9688 20.1406 25.0625 20.1406 25.1875 20.1094C25.2812 20.2969 25.4062 20.4531 25.5625 20.5781C25.75 20.7031 25.9062 20.8594 26.0312 21.0469C26.1875 21.0781 26.2969 21.0625 26.3594 21C26.4219 20.9375 26.5156 20.9062 26.6406 20.9062V21.6562C26.7656 21.9062 26.9375 22.1406 27.1562 22.3594C27.375 22.5469 27.6094 22.75 27.8594 22.9688C27.9219 23.3125 27.9688 23.5625 28 23.7188C28.0312 23.8438 28.1094 23.9219 28.2344 23.9531C28.2344 24.2031 28.2969 24.4375 28.4219 24.6562C28.5469 24.875 28.625 25.1094 28.6562 25.3594C28.8125 25.5469 28.8438 25.6719 28.75 25.7344C28.6562 25.7656 28.6094 25.8125 28.6094 25.875C28.6094 26.125 28.6719 26.3906 28.7969 26.6719C28.9219 26.9531 28.9844 27.2344 28.9844 27.5156C28.9844 27.6719 28.9531 27.8281 28.8906 27.9844C28.8594 28.1406 28.8438 28.2969 28.8438 28.4531ZM18.0156 8.10938C17.7344 7.85937 17.5469 7.6875 17.4531 7.59375C17.3594 7.46875 17.2344 7.375 17.0781 7.3125C16.7969 7.1875 16.625 7.09375 16.5625 7.03125C16.5 6.9375 16.4375 6.85938 16.375 6.79688C16.3125 6.73437 16.2188 6.70312 16.0938 6.70312C16 6.67188 15.9219 6.60938 15.8594 6.51562H15.0625C15 6.51562 14.9219 6.46875 14.8281 6.375C14.7656 6.28125 14.7031 6.21875 14.6406 6.1875C14.4531 6.09375 14.2344 6.0625 13.9844 6.09375C13.7656 6.09375 13.5469 6.0625 13.3281 6C13.1719 5.9375 13.0312 5.875 12.9062 5.8125C12.8125 5.71875 12.6719 5.67188 12.4844 5.67188C12.0469 5.70312 11.7344 5.65625 11.5469 5.53125C11.3594 5.375 11.1406 5.29688 10.8906 5.29688C10.7969 5.29688 10.7031 5.3125 10.6094 5.34375C10.5469 5.375 10.4688 5.39062 10.375 5.39062C10.25 5.39062 10.1406 5.35938 10.0469 5.29688C9.95312 5.23437 9.84375 5.20312 9.71875 5.20312C9.625 5.20312 9.53125 5.21875 9.4375 5.25C9.34375 5.28125 9.25 5.29688 9.15625 5.29688C9.0625 5.29688 8.96875 5.26563 8.875 5.20312C8.8125 5.10938 8.71875 5.0625 8.59375 5.0625C8.25 5.15625 8.01562 5.1875 7.89062 5.15625C7.76562 5.09375 7.65625 5.14062 7.5625 5.29688C7.15625 5.10938 6.70312 5.04687 6.20312 5.10938C5.73438 5.17188 5.29688 5.26563 4.89062 5.39062C4.73438 5.70312 4.64062 6.07812 4.60938 6.51562C4.57812 6.92187 4.64062 7.29687 4.79688 7.64062C4.57812 7.89063 4.51562 8.20312 4.60938 8.57812C4.73438 8.92188 4.73438 9.25 4.60938 9.5625C4.85938 9.6875 4.96875 9.95313 4.9375 10.3594C4.9375 10.7344 4.92188 11.0469 4.89062 11.2969C4.89062 11.3594 4.85938 11.4375 4.79688 11.5312C4.73438 11.5938 4.70312 11.6719 4.70312 11.7656C4.70312 12.0781 4.75 12.4688 4.84375 12.9375C4.9375 13.4062 5.0625 13.7656 5.21875 14.0156C5.15625 14.1719 5.07812 14.2969 4.98438 14.3906C4.92188 14.4531 4.89062 14.5625 4.89062 14.7188C4.89062 14.9062 4.95312 15.0469 5.07812 15.1406C5.23438 15.2344 5.3125 15.4531 5.3125 15.7969C5.3125 16.0156 5.34375 16.2188 5.40625 16.4062C5.46875 16.5625 5.5 16.75 5.5 16.9688C5.75 16.9062 6 16.9062 6.25 16.9688C6.5 17.0312 6.75 17.0625 7 17.0625C7.15625 17.0625 7.28125 17.0469 7.375 17.0156C7.46875 16.9531 7.59375 16.9062 7.75 16.875C7.9375 17.0312 8.09375 17.0781 8.21875 17.0156C8.375 16.9531 8.54688 16.9219 8.73438 16.9219C9.20312 16.8281 9.57812 16.75 9.85938 16.6875C10.1719 16.625 10.4844 16.6094 10.7969 16.6406C10.9219 16.6094 11 16.5469 11.0312 16.4531C11.0625 16.3281 11.1562 16.2656 11.3125 16.2656C11.75 16.2656 12.1562 16.2344 12.5312 16.1719C12.9062 16.1094 13.3125 15.9688 13.75 15.75C13.8438 15.8125 14.0156 15.8438 14.2656 15.8438C14.4219 15.7188 14.5781 15.6406 14.7344 15.6094C14.9219 15.5781 15.0938 15.5625 15.25 15.5625C15.2812 15.4375 15.375 15.3281 15.5312 15.2344C15.6875 15.1094 15.8594 14.9844 16.0469 14.8594C16.2344 14.7344 16.4062 14.625 16.5625 14.5312C16.75 14.4062 16.8906 14.2969 16.9844 14.2031C17.1719 13.8906 17.2812 13.7188 17.3125 13.6875C17.375 13.625 17.4375 13.5625 17.5 13.5C17.5938 13.3438 17.6562 13.2031 17.6875 13.0781C17.75 12.9219 17.8281 12.7656 17.9219 12.6094V11.7656C18.1406 11.6406 18.3594 11.4531 18.5781 11.2031C18.7969 10.9219 18.9062 10.6563 18.9062 10.4062C18.9062 10.2813 18.8906 10.1719 18.8594 10.0781C18.8281 9.98438 18.8125 9.875 18.8125 9.75C18.8125 9.59375 18.8281 9.46875 18.8594 9.375C18.8906 9.25 18.9062 9.10938 18.9062 8.95312C18.9062 8.79687 18.7969 8.64063 18.5781 8.48438C18.3594 8.29688 18.1719 8.17188 18.0156 8.10938ZM23.9688 24.7969C23.9062 24.5469 23.7969 24.375 23.6406 24.2812C23.4844 24.1562 23.3281 24.0156 23.1719 23.8594C23.0781 23.7656 22.9844 23.6406 22.8906 23.4844C22.7969 23.3281 22.6875 23.2188 22.5625 23.1562C22.4375 23.0625 22.2969 23.0156 22.1406 23.0156C22.0156 22.9844 21.8906 22.9375 21.7656 22.875C21.7031 22.8125 21.6094 22.7344 21.4844 22.6406C21.3594 22.5156 21.2812 22.4531 21.25 22.4531C21 22.4531 20.8438 22.4219 20.7812 22.3594C20.75 22.2969 20.7031 22.2656 20.6406 22.2656C20.3906 22.1406 20.1406 22.0781 19.8906 22.0781C19.6406 22.0781 19.3906 22.0312 19.1406 21.9375C18.9844 21.875 18.8438 21.7812 18.7188 21.6562C18.5938 21.5 18.4531 21.3906 18.2969 21.3281C18.2031 21.2656 18.0938 21.25 17.9688 21.2812C17.875 21.2812 17.7812 21.2656 17.6875 21.2344C17.5938 21.1719 17.5156 21.125 17.4531 21.0938C17.3906 21.0312 17.2969 20.9688 17.1719 20.9062C16.9219 20.8438 16.6406 20.8281 16.3281 20.8594C16.0469 20.8594 15.7656 20.8438 15.4844 20.8125C15.3906 20.6562 15.2656 20.5625 15.1094 20.5312C14.9531 20.4688 14.8281 20.3594 14.7344 20.2031C14.4844 20.2031 14.2031 20.1875 13.8906 20.1562C13.6094 20.0938 13.3594 20.1406 13.1406 20.2969C12.9219 20.2344 12.6875 20.2344 12.4375 20.2969C12.2188 20.3594 11.9844 20.4219 11.7344 20.4844C11.5156 20.5469 11.2812 20.5938 11.0312 20.625C10.8125 20.6562 10.5938 20.5938 10.375 20.4375C9.84375 20.7188 9.23438 20.75 8.54688 20.5312C8.39062 20.5938 8.25 20.6875 8.125 20.8125C8.03125 20.9062 7.90625 20.9844 7.75 21.0469C7.28125 21.1719 7.04688 21.25 7.04688 21.2812C7.07812 21.3125 6.96875 21.3281 6.71875 21.3281C6.28125 21.3281 5.95312 21.4375 5.73438 21.6562C5.85938 21.9688 5.90625 22.2812 5.875 22.5938C5.875 22.9062 5.875 23.2344 5.875 23.5781C5.875 23.8281 5.92188 24.0625 6.01562 24.2812C6.10938 24.4688 6.15625 24.6719 6.15625 24.8906C6.25 25.2031 6.29688 25.4688 6.29688 25.6875C6.29688 25.875 6.23438 26.0469 6.10938 26.2031C6.29688 26.2969 6.375 26.5 6.34375 26.8125C6.3125 27.125 6.26562 27.3594 6.20312 27.5156C6.23438 27.6719 6.3125 27.75 6.4375 27.75C6.5625 27.7188 6.59375 27.8125 6.53125 28.0312C6.59375 28.2188 6.5625 28.4375 6.4375 28.6875C6.34375 28.9375 6.26562 29.1562 6.20312 29.3438C6.26562 29.5 6.3125 29.6406 6.34375 29.7656C6.375 29.8906 6.40625 30.0156 6.4375 30.1406C6.25 30.1719 6.125 30.2656 6.0625 30.4219C6.03125 30.5781 5.98438 30.7344 5.92188 30.8906C6.07812 31.2031 6.21875 31.4844 6.34375 31.7344C6.46875 31.9531 6.53125 32.2344 6.53125 32.5781C6.65625 32.5781 6.76562 32.6094 6.85938 32.6719C6.98438 32.7031 7.10938 32.7188 7.23438 32.7188C7.51562 32.625 7.70312 32.6406 7.79688 32.7656C7.92188 32.8594 8.0625 32.9062 8.21875 32.9062C8.53125 32.8438 8.73438 32.8438 8.82812 32.9062C8.95312 32.9375 9.0625 32.9688 9.15625 33C9.375 33.0625 9.57812 33.0938 9.76562 33.0938C9.98438 33.0938 10.1875 33.0938 10.375 33.0938C10.5 33.0938 10.6094 33.0625 10.7031 33C10.7969 32.9375 10.8906 32.9062 10.9844 32.9062C11.2031 32.9688 11.3281 32.9844 11.3594 32.9531C11.3906 32.9219 11.4375 32.9062 11.5 32.9062C11.8438 32.9062 12.0938 32.9219 12.25 32.9531C12.4375 32.9844 12.5781 33 12.6719 33C12.7969 32.9688 12.9375 32.9219 13.0938 32.8594C13.25 32.7969 13.5 32.6719 13.8438 32.4844C14 32.7031 14.1719 32.7969 14.3594 32.7656C14.5781 32.7344 14.7812 32.7812 14.9688 32.9062C15.0938 32.8438 15.2812 32.7656 15.5312 32.6719C15.7812 32.5469 15.9844 32.4844 16.1406 32.4844C16.4531 32.5469 16.6562 32.5625 16.75 32.5312C16.8438 32.4688 16.9531 32.4219 17.0781 32.3906C17.3281 32.3281 17.5938 32.3125 17.875 32.3438C18.1875 32.375 18.4688 32.3594 18.7188 32.2969C18.875 32.2344 18.9219 32.1875 18.8594 32.1562C18.8281 32.125 18.9531 32.1094 19.2344 32.1094C19.3594 32.1094 19.4531 32.0625 19.5156 31.9688C19.5781 31.8438 19.6562 31.75 19.75 31.6875C20.0625 31.6875 20.2656 31.6719 20.3594 31.6406C20.4531 31.6094 20.5469 31.5625 20.6406 31.5C20.8594 31.5312 21.0938 31.5 21.3438 31.4062C21.5938 31.3125 21.8281 31.2188 22.0469 31.125C22.2656 31 22.4688 30.8906 22.6562 30.7969C22.8438 30.7031 22.9844 30.6562 23.0781 30.6562C23.2344 30.4375 23.3906 30.25 23.5469 30.0938C23.7344 29.9062 23.9531 29.7656 24.2031 29.6719C24.1719 29.4219 24.25 29.2344 24.4375 29.1094C24.625 28.9844 24.75 28.7656 24.8125 28.4531C25 28.1719 25.1094 27.9062 25.1406 27.6562C25.1719 27.375 25.1875 27.1562 25.1875 27C25.1875 26.9375 25.1562 26.8281 25.0938 26.6719C25.0625 26.4844 25 26.2969 24.9062 26.1094C24.8438 25.9219 24.7812 25.75 24.7188 25.5938C24.6562 25.4375 24.6094 25.3438 24.5781 25.3125C24.5156 25.1875 24.4219 25.0938 24.2969 25.0312C24.1719 24.9688 24.0625 24.8906 23.9688 24.7969ZM57.8594 33.5156C57.6719 33.8594 57.4375 34.2188 57.1562 34.5938C56.9062 34.9688 56.5625 35.1562 56.125 35.1562C56.0938 35.4375 56.0156 35.5781 55.8906 35.5781C55.7656 35.5781 55.7188 35.6406 55.75 35.7656C55.4062 35.7031 55.0312 35.6719 54.625 35.6719C54.25 35.6719 53.9062 35.7656 53.5938 35.9531C53.0312 35.6719 52.4219 35.5469 51.7656 35.5781C51.1406 35.6094 50.5156 35.5938 49.8906 35.5312C49.7031 35.5312 49.5156 35.5156 49.3281 35.4844C49.1719 35.4219 49 35.375 48.8125 35.3438C48.6875 35.3125 48.5781 35.3594 48.4844 35.4844C48.3906 35.5781 48.2812 35.625 48.1562 35.625C48.0312 35.5625 47.9062 35.5469 47.7812 35.5781C47.6875 35.6094 47.5781 35.625 47.4531 35.625C47.3281 35.625 47.2188 35.6094 47.125 35.5781C47.0312 35.5469 46.9219 35.5312 46.7969 35.5312C46.6094 35.5312 46.4219 35.5781 46.2344 35.6719C46.0781 35.7656 45.8906 35.8125 45.6719 35.8125C45.3281 35.8125 45 35.7812 44.6875 35.7188C44.375 35.6562 44.0469 35.625 43.7031 35.625C43.5469 35.625 43.375 35.6719 43.1875 35.7656C43.0312 35.8281 42.875 35.8594 42.7188 35.8594C42.625 35.8594 42.5312 35.8438 42.4375 35.8125C42.375 35.7812 42.2969 35.7656 42.2031 35.7656C41.9844 35.7656 41.7812 35.7969 41.5938 35.8594C41.4062 35.9219 41.2031 35.9531 40.9844 35.9531C40.8281 35.9531 40.6562 35.9531 40.4688 35.9531C40.3125 35.9219 40.1406 35.9062 39.9531 35.9062C39.5781 35.9062 39.3281 36.0625 39.2031 36.375C39.1094 36.3125 39.0156 36.25 38.9219 36.1875C38.8594 36.1562 38.7656 36.1406 38.6406 36.1406C38.3281 36.1406 38.0625 36.2344 37.8438 36.4219C37.625 36.6406 37.3906 36.75 37.1406 36.75C36.8906 36.75 36.6719 36.7031 36.4844 36.6094C36.2969 36.5469 36.0938 36.5 35.875 36.4688C35.9062 36.2188 35.75 35.9219 35.4062 35.5781C35.0625 35.2031 34.8438 34.8906 34.75 34.6406C34.9688 34.3281 35.1094 33.9688 35.1719 33.5625C35.2344 33.125 35.1562 32.7344 34.9375 32.3906C35.1562 32.2656 35.3125 32 35.4062 31.5938C35.5 31.1562 35.5469 30.8281 35.5469 30.6094C35.5469 30.4844 35.4844 30.4375 35.3594 30.4688C35.2344 30.4688 35.1719 30.4062 35.1719 30.2812C35.1719 30.1875 35.2031 30.0469 35.2656 29.8594C35.3594 29.6406 35.4375 29.5 35.5 29.4375C35.375 29.25 35.3281 29.1094 35.3594 29.0156C35.3906 28.9219 35.4844 28.7969 35.6406 28.6406C35.5156 28.5156 35.4531 28.375 35.4531 28.2188C35.4531 28.0312 35.4531 27.8594 35.4531 27.7031C35.4531 27.5469 35.4219 27.4062 35.3594 27.2812C35.2969 27.125 35.1562 27 34.9375 26.9062C34.9375 26.8438 34.9688 26.7656 35.0312 26.6719C35.125 26.5781 35.1719 26.4531 35.1719 26.2969C35.1719 26.1406 35.0938 25.9062 34.9375 25.5938C34.7812 25.2812 34.7812 25.0781 34.9375 24.9844C34.9375 24.8594 34.9062 24.7656 34.8438 24.7031C34.8125 24.6094 34.8906 24.5 35.0781 24.375C34.9531 23.9375 34.9219 23.5312 34.9844 23.1562C35.0781 22.7812 35 22.375 34.75 21.9375C34.8438 22 34.9062 22.0156 34.9375 21.9844C34.9688 21.9219 34.9844 21.8594 34.9844 21.7969C34.9844 21.7031 34.9844 21.6406 34.9844 21.6094C34.9844 21.5469 35.0156 21.5156 35.0781 21.5156C35.1719 21.0781 35.2031 20.6094 35.1719 20.1094C35.1719 19.6094 35.1562 19.1094 35.125 18.6094C35.125 18.1094 35.125 17.625 35.125 17.1562C35.1562 16.6875 35.2188 16.25 35.3125 15.8438C35.5625 15.25 35.6875 14.7812 35.6875 14.4375C35.7188 14.0625 35.7344 13.7031 35.7344 13.3594C35.7344 13.2031 35.75 13.0625 35.7812 12.9375C35.8125 12.7812 35.9062 12.6719 36.0625 12.6094C36 12.0156 35.9375 11.4375 35.875 10.875C35.8438 10.2813 35.9531 9.70312 36.2031 9.14062C36.0781 8.89062 36 8.71875 35.9688 8.625C35.9688 8.5 35.9844 8.40625 36.0156 8.34375C36.0469 8.28125 36.0781 8.21875 36.1094 8.15625C36.1719 8.0625 36.2031 7.92188 36.2031 7.73438C36.2031 7.45312 36.1719 7.1875 36.1094 6.9375C36.0781 6.65625 36.0625 6.39063 36.0625 6.14062C36.0625 5.98437 36.0781 5.73438 36.1094 5.39062C36.1406 5.01562 36.1719 4.625 36.2031 4.21875C36.2656 3.8125 36.3125 3.4375 36.3438 3.09375C36.4062 2.75 36.4688 2.53125 36.5312 2.4375C36.5938 2.28125 36.7188 2.17188 36.9062 2.10938C37.0938 2.04687 37.1875 1.92188 37.1875 1.73438C37.25 1.73438 37.375 1.73438 37.5625 1.73438C37.7812 1.70313 37.9219 1.67187 37.9844 1.64062C38.2031 1.54688 38.375 1.51563 38.5 1.54688C38.625 1.54688 38.6719 1.46875 38.6406 1.3125C38.8281 1.46875 38.9688 1.5625 39.0625 1.59375C39.1562 1.59375 39.1719 1.67187 39.1094 1.82812C39.3594 1.89063 39.5625 2 39.7188 2.15625C39.875 2.28125 40.0781 2.40625 40.3281 2.53125C40.2656 2.84375 40.2969 3.07812 40.4219 3.23438C40.5781 3.35937 40.6562 3.54687 40.6562 3.79688C40.6562 3.92187 40.6094 4.01562 40.5156 4.07812C40.4219 4.10937 40.3594 4.17188 40.3281 4.26562C40.4531 4.64062 40.4844 5.0625 40.4219 5.53125C40.3906 5.96875 40.4688 6.35937 40.6562 6.70312C40.3438 7.26562 40.1875 7.84375 40.1875 8.4375C40.1875 8.59375 40.2031 8.73438 40.2344 8.85938C40.2969 8.95312 40.3281 9.07812 40.3281 9.23438C40.3281 9.54687 40.2812 9.84375 40.1875 10.125C40.125 10.4062 40.0938 10.6875 40.0938 10.9688C40.0938 11.1562 40.1094 11.3438 40.1406 11.5312C40.1719 11.7188 40.1875 11.9062 40.1875 12.0938C40.1875 12.4688 40.1406 12.8594 40.0469 13.2656C39.9531 13.6719 39.9688 14.0625 40.0938 14.4375C39.9375 14.5312 39.8438 14.6562 39.8125 14.8125C39.8125 14.9688 39.7656 15.1094 39.6719 15.2344C39.8281 15.6094 39.8438 15.9688 39.7188 16.3125C39.5938 16.6562 39.5312 17.0156 39.5312 17.3906C39.5312 17.4844 39.5469 17.5781 39.5781 17.6719C39.6406 17.7656 39.6719 17.875 39.6719 18C39.6094 18.25 39.5938 18.375 39.625 18.375C39.6562 18.375 39.6719 18.4062 39.6719 18.4688C39.6719 18.6562 39.6094 18.875 39.4844 19.125C39.3594 19.3438 39.2969 19.5781 39.2969 19.8281C39.2969 19.8906 39.3281 19.9688 39.3906 20.0625C39.4844 20.1562 39.5312 20.2344 39.5312 20.2969C39.5312 20.5781 39.5 20.8594 39.4375 21.1406C39.4062 21.3906 39.5156 21.625 39.7656 21.8438C39.6719 22.0938 39.625 22.3125 39.625 22.5C39.6562 22.6875 39.6719 22.9062 39.6719 23.1562C39.6719 23.3438 39.625 23.5312 39.5312 23.7188C39.4688 23.9062 39.4375 24.0938 39.4375 24.2812C39.4375 24.5938 39.4844 24.8906 39.5781 25.1719C39.7031 25.4531 39.7656 25.75 39.7656 26.0625C39.7656 26.25 39.7969 26.4219 39.8594 26.5781C39.9219 26.7031 39.9844 26.8438 40.0469 27C40.1406 27.1562 40.1875 27.3281 40.1875 27.5156C40.2188 27.6719 40.1875 27.875 40.0938 28.125C40.125 28.25 40.1719 28.3594 40.2344 28.4531C40.2969 28.5469 40.3281 28.6562 40.3281 28.7812C40.3281 28.9375 40.2969 29.0938 40.2344 29.25C40.2031 29.375 40.1562 29.5156 40.0938 29.6719C40.1875 29.8594 40.2344 30.0469 40.2344 30.2344C40.2344 30.4219 40.2188 30.6094 40.1875 30.7969C40.1875 30.9844 40.1875 31.1719 40.1875 31.3594C40.2188 31.5469 40.2969 31.7188 40.4219 31.875C40.6719 31.8125 40.9219 31.8125 41.1719 31.875C41.4219 31.9062 41.6719 31.9219 41.9219 31.9219C42.1406 31.9219 42.3281 31.8906 42.4844 31.8281C42.6406 31.7344 42.8125 31.6562 43 31.5938C43.25 31.6562 43.5 31.7031 43.75 31.7344C44.0312 31.7656 44.2969 31.8125 44.5469 31.875C44.6406 31.7812 44.75 31.75 44.875 31.7812C45 31.8125 45.125 31.8438 45.25 31.875C45.4062 31.875 45.5469 31.875 45.6719 31.875C45.7969 31.8438 45.9062 31.75 46 31.5938C46.2812 31.625 46.5312 31.6875 46.75 31.7812C47 31.8438 47.2812 31.8438 47.5938 31.7812C47.875 31.7188 48.125 31.7188 48.3438 31.7812C48.5625 31.8125 48.7969 31.8281 49.0469 31.8281C49.2969 31.8281 49.5469 31.7969 49.7969 31.7344C50.0781 31.6406 50.3438 31.5938 50.5938 31.5938C50.75 31.5938 50.8594 31.625 50.9219 31.6875C51.0156 31.75 51.125 31.8125 51.25 31.875C51.5938 31.8438 52.0156 31.7969 52.5156 31.7344C53.0469 31.6406 53.4531 31.5156 53.7344 31.3594C53.8906 31.2969 53.9844 31.2031 54.0156 31.0781C54.0781 30.9219 54.2031 30.8125 54.3906 30.75C54.6094 30.9062 54.75 31.0312 54.8125 31.125C54.9062 31.2188 55.0938 31.2344 55.375 31.1719C55.4375 31.2656 55.5 31.3594 55.5625 31.4531C55.625 31.5156 55.6875 31.5938 55.75 31.6875C55.9062 31.6875 56.0625 31.7188 56.2188 31.7812C56.4062 31.8125 56.5781 31.8438 56.7344 31.875C57.0156 32.0938 57.2344 32.3594 57.3906 32.6719C57.5469 32.9531 57.7031 33.2344 57.8594 33.5156ZM79.6094 2.85938H80.4062C80.5625 3.07812 80.7344 3.21875 80.9219 3.28125C81.1406 3.3125 81.3438 3.40625 81.5312 3.5625C81.625 3.625 81.7031 3.67188 81.7656 3.70312C81.8281 3.70312 81.8906 3.70312 81.9531 3.70312C82.0156 3.70312 82.0938 3.73437 82.1875 3.79688C82.2812 3.85938 82.4062 3.96875 82.5625 4.125L82.9375 4.54688C83.0938 4.64062 83.2344 4.71875 83.3594 4.78125C83.4844 4.84375 83.5938 4.95312 83.6875 5.10938C83.8438 5.14062 83.9531 5.1875 84.0156 5.25C84.0781 5.3125 84.1875 5.32812 84.3438 5.29688C84.625 5.67188 84.9219 6.01563 85.2344 6.32812C85.5469 6.64062 85.9062 6.92187 86.3125 7.17188C86.3125 7.26562 86.3594 7.40625 86.4531 7.59375C86.5781 7.78125 86.7031 7.96875 86.8281 8.15625C86.9844 8.34375 87.1406 8.51562 87.2969 8.67188C87.4531 8.79687 87.5781 8.875 87.6719 8.90625C87.6094 9.15625 87.5781 9.29688 87.5781 9.32812C87.6094 9.32812 87.6562 9.45312 87.7188 9.70312C87.8125 9.82812 87.9062 9.95313 88 10.0781C88.0938 10.1719 88.2031 10.2813 88.3281 10.4062C88.5469 10.6563 88.6562 10.8594 88.6562 11.0156C88.6875 11.1719 88.8594 11.375 89.1719 11.625C89.1406 11.9062 89.125 12.0781 89.125 12.1406C89.1562 12.2031 89.1875 12.2656 89.2188 12.3281C89.375 12.4844 89.4844 12.6719 89.5469 12.8906C89.6406 13.1094 89.7969 13.2969 90.0156 13.4531C90.0156 13.8906 90.0938 14.3281 90.25 14.7656C90.4062 15.2031 90.4688 15.6406 90.4375 16.0781C90.5312 16.2031 90.5938 16.3125 90.625 16.4062C90.6562 16.5 90.6719 16.5938 90.6719 16.6875C90.7031 16.7812 90.75 16.875 90.8125 16.9688C90.875 17.0312 90.9844 17.125 91.1406 17.25C91.0781 17.3125 91 17.4062 90.9062 17.5312C90.8438 17.625 90.8125 17.7031 90.8125 17.7656C90.875 18.0469 90.8906 18.2656 90.8594 18.4219C90.8594 18.5781 90.7812 18.7812 90.625 19.0312C90.75 19.3125 90.7969 19.5469 90.7656 19.7344C90.7656 19.9219 90.7344 20.0938 90.6719 20.25C90.6094 20.4062 90.5625 20.5781 90.5312 20.7656C90.5312 20.9219 90.5938 21.1094 90.7188 21.3281C90.6875 21.5469 90.6406 21.6875 90.5781 21.75C90.5156 21.8125 90.4688 21.875 90.4375 21.9375C90.4062 21.9688 90.3906 22.0469 90.3906 22.1719C90.3906 22.2969 90.4375 22.5312 90.5312 22.875C90.4375 23 90.3594 23.125 90.2969 23.25C90.2656 23.3438 90.2031 23.4531 90.1094 23.5781C90.0781 23.7656 90.0156 23.9844 89.9219 24.2344C89.8594 24.4844 89.7812 24.7344 89.6875 24.9844C89.625 25.2344 89.5625 25.4688 89.5 25.6875C89.4375 25.875 89.4062 26.0156 89.4062 26.1094C89.25 26.5781 89.0469 27.0156 88.7969 27.4219C88.6094 27.5469 88.3906 27.7031 88.1406 27.8906C88.2031 27.9531 88.2656 28.0312 88.3281 28.125C88.4219 28.1875 88.5 28.25 88.5625 28.3125C88.3438 28.5938 88.1406 28.9062 87.9531 29.25C87.7969 29.5625 87.5781 29.8281 87.2969 30.0469C87.2344 30.2969 87.2188 30.4531 87.25 30.5156L86.7344 30.8438C86.7031 31.0312 86.6406 31.1875 86.5469 31.3125C86.4844 31.4062 86.4375 31.5625 86.4062 31.7812C86.1875 31.875 86.0312 32 85.9375 32.1562C85.875 32.2812 85.8125 32.4688 85.75 32.7188C85.4375 32.6875 85.2812 32.6875 85.2812 32.7188C85.2812 32.75 85.1562 32.8281 84.9062 32.9531C84.7188 33.1406 84.5 33.3594 84.25 33.6094C84 33.8594 83.75 34.0312 83.5 34.125C83.25 34.1875 83.0156 34.3125 82.7969 34.5C82.6094 34.6562 82.4219 34.8125 82.2344 34.9688C81.8906 34.9688 81.6094 35.0312 81.3906 35.1562C81.1719 35.25 80.9219 35.375 80.6406 35.5312C80.3281 35.6875 80 35.7969 79.6562 35.8594C79.3438 35.9219 79.0312 36.0312 78.7188 36.1875C78.625 36.1875 78.5156 36.1875 78.3906 36.1875C78.2969 36.1875 78.2031 36.1562 78.1094 36.0938C77.9531 36.25 77.8281 36.3438 77.7344 36.375C77.6406 36.4375 77.4688 36.4844 77.2188 36.5156C76.7812 36.7031 76.5312 36.7812 76.4688 36.75C76.4062 36.75 76.2812 36.6875 76.0938 36.5625C75.8125 36.7188 75.5625 36.7969 75.3438 36.7969C75.1562 36.8281 74.9531 36.8281 74.7344 36.7969C74.5469 36.7969 74.3438 36.7969 74.125 36.7969C73.9375 36.8281 73.75 36.8906 73.5625 36.9844C73.3125 36.9531 73.1406 36.9062 73.0469 36.8438C72.9531 36.8125 72.8594 36.7812 72.7656 36.75C72.7031 36.75 72.6094 36.7656 72.4844 36.7969C72.3906 36.8281 72.2031 36.9219 71.9219 37.0781C71.7656 37.0469 71.6094 37 71.4531 36.9375C71.3281 36.9062 71.2031 36.8438 71.0781 36.75C70.6719 36.7188 70.2656 36.625 69.8594 36.4688C69.4844 36.3438 69.1562 36.1406 68.875 35.8594C68.7812 35.8594 68.6875 35.8438 68.5938 35.8125C68.5 35.75 68.4062 35.7188 68.3125 35.7188C68.0625 35.75 67.9062 35.7188 67.8438 35.625C67.8125 35.5312 67.7656 35.4531 67.7031 35.3906C67.4844 35.3281 67.3438 35.2812 67.2812 35.25C67.25 35.2188 67.1094 35.2344 66.8594 35.2969C66.4844 35.0469 66.2969 34.8906 66.2969 34.8281C66.2969 34.7656 66.125 34.7656 65.7812 34.8281C65.6875 34.5781 65.5781 34.3906 65.4531 34.2656C65.3281 34.1094 65.1875 33.9844 65.0312 33.8906C64.9062 33.7656 64.7656 33.6562 64.6094 33.5625C64.4844 33.4375 64.375 33.2656 64.2812 33.0469C64.0312 32.9531 63.7812 32.8594 63.5312 32.7656C63.3125 32.6719 63.0781 32.5781 62.8281 32.4844C62.7656 32.2656 62.7656 32.0312 62.8281 31.7812C62.6719 31.5 62.5781 31.2812 62.5469 31.125C62.5469 30.9688 62.375 30.8125 62.0312 30.6562C62.0938 30.4688 62.1094 30.3281 62.0781 30.2344C62.0781 30.1094 62.0469 30 61.9844 29.9062C61.9531 29.8125 61.9062 29.7031 61.8438 29.5781C61.8125 29.4531 61.7969 29.2969 61.7969 29.1094C61.5781 28.7031 61.4531 28.3281 61.4219 27.9844C61.4219 27.6094 61.3906 27.3438 61.3281 27.1875C61.2344 27.0312 61.1406 26.9062 61.0469 26.8125C60.9531 26.7188 60.9219 26.5625 60.9531 26.3438C60.8906 26.2188 60.8281 26.1094 60.7656 26.0156C60.7031 25.9219 60.625 25.8281 60.5312 25.7344C60.5 25.1719 60.2969 24.7031 59.9219 24.3281C60.0156 24.1719 60.0781 24.0312 60.1094 23.9062C60.1406 23.75 60.0469 23.625 59.8281 23.5312C59.8281 23.375 59.8281 23.2344 59.8281 23.1094C59.8594 22.9844 59.9219 22.875 60.0156 22.7812C59.9844 22.625 59.9531 22.5 59.9219 22.4062C59.9219 22.3125 59.9688 22.1875 60.0625 22.0312C60 21.6875 59.9219 21.4531 59.8281 21.3281C59.8281 21.1094 59.8281 20.9844 59.8281 20.9531C59.8594 20.8906 59.9219 20.7656 60.0156 20.5781C60.0156 20.4219 59.9844 20.2812 59.9219 20.1562C59.8906 20 59.9375 19.8438 60.0625 19.6875C59.9688 19.2188 59.9531 18.75 60.0156 18.2812C60.0781 17.8125 60.1406 17.3438 60.2031 16.875C60.3594 17.0938 60.4375 17.3281 60.4375 17.5781C60.4375 17.8281 60.4062 18.0469 60.3438 18.2344C60.125 18.0469 60.0469 17.8281 60.1094 17.5781C60.1719 17.2969 60.25 17.0156 60.3438 16.7344C60.4375 16.4531 60.5156 16.1875 60.5781 15.9375C60.6719 15.6875 60.7344 15.5469 60.7656 15.5156C60.7031 15.2969 60.7188 15.125 60.8125 15C60.9062 14.875 60.9844 14.7344 61.0469 14.5781C60.9219 14.3281 60.875 14.1406 60.9062 14.0156C60.9688 13.8906 61.0781 13.75 61.2344 13.5938C61.2969 13.0625 61.4219 12.5469 61.6094 12.0469C61.7969 11.5469 61.9375 11.0313 62.0312 10.5C62.3125 10.1875 62.5312 9.95313 62.6875 9.79688C62.8438 9.60938 62.9688 9.29688 63.0625 8.85938C63.3125 8.60937 63.4531 8.4375 63.4844 8.34375C63.5156 8.25 63.6094 8.15625 63.7656 8.0625C63.8906 8 64 7.90625 64.0938 7.78125C64.1875 7.625 64.3125 7.53125 64.4688 7.5C64.5312 7.40625 64.5781 7.29687 64.6094 7.17188C64.6719 7.04688 64.7344 6.92187 64.7969 6.79688C65.0781 6.79688 65.2812 6.73437 65.4062 6.60938C65.7812 6.14062 66.0625 5.875 66.25 5.8125C66.4375 5.75 66.6094 5.53125 66.7656 5.15625C67.0469 5.09375 67.2344 5 67.3281 4.875C67.4531 4.71875 67.6406 4.60938 67.8906 4.54688C67.9219 4.45312 68 4.3125 68.125 4.125C68.5312 4.125 68.8594 4.03125 69.1094 3.84375C69.3906 3.65625 69.7188 3.54687 70.0938 3.51562C70.3438 3.35937 70.5781 3.23438 70.7969 3.14062C71.0156 3.01563 71.2656 2.95312 71.5469 2.95312C71.7031 2.85938 71.9219 2.78125 72.2031 2.71875C72.4844 2.625 72.7812 2.5625 73.0938 2.53125C73.4062 2.46875 73.7031 2.4375 73.9844 2.4375C74.2969 2.4375 74.5312 2.46875 74.6875 2.53125C74.8438 2.40625 74.9531 2.375 75.0156 2.4375C75.1094 2.5 75.2344 2.53125 75.3906 2.53125C75.5156 2.53125 75.6875 2.46875 75.9062 2.34375C76.1562 2.1875 76.4062 2.10938 76.6562 2.10938C76.8438 2.10938 76.9844 2.14062 77.0781 2.20312C77.2031 2.26563 77.2969 2.32812 77.3594 2.39062C77.4531 2.45313 77.5469 2.51562 77.6406 2.57812C77.7344 2.64063 77.875 2.67188 78.0625 2.67188C78.375 2.67188 78.6406 2.625 78.8594 2.53125C79.1094 2.4375 79.3594 2.54688 79.6094 2.85938ZM86.6406 16.6875C86.5469 16.625 86.4688 16.5625 86.4062 16.5C86.3438 16.4062 86.2812 16.3125 86.2188 16.2188C86.2188 15.8125 86.1406 15.4375 85.9844 15.0938C85.8281 14.75 85.7188 14.375 85.6562 13.9688C85.5312 13.9062 85.4531 13.8281 85.4219 13.7344C85.3906 13.6094 85.3594 13.4844 85.3281 13.3594C85.1094 13.1094 84.9219 12.9062 84.7656 12.75C84.6094 12.5938 84.5312 12.3906 84.5312 12.1406C84.4375 12.2031 84.3125 12.0781 84.1562 11.7656C84.0312 11.4531 83.9375 11.25 83.875 11.1562C83.8125 11.0313 83.7344 10.9219 83.6406 10.8281C83.5781 10.7344 83.5156 10.625 83.4531 10.5C83.2969 10.4375 83.1406 10.375 82.9844 10.3125C82.8281 10.2188 82.7188 10.0938 82.6562 9.9375C82.3438 9.875 82.1094 9.76563 81.9531 9.60938C81.9531 9.35937 81.875 9.17187 81.7188 9.04688C81.5625 8.92188 81.4531 8.75 81.3906 8.53125C81.1719 8.46875 81 8.375 80.875 8.25C80.8438 8.125 80.7969 8.04687 80.7344 8.01562C80.6719 7.98438 80.5938 7.92188 80.5 7.82812C80.2188 7.79688 80 7.70313 79.8438 7.54688C79.6875 7.39062 79.4688 7.375 79.1875 7.5C79 7.375 78.8906 7.25 78.8594 7.125C78.6406 7.0625 78.4844 7.04688 78.3906 7.07812C78.2969 7.07812 78.1875 7.04688 78.0625 6.98438C77.7812 6.70312 77.5469 6.54687 77.3594 6.51562C77.2031 6.45312 77.0312 6.42188 76.8438 6.42188C76.6875 6.60938 76.4375 6.67188 76.0938 6.60938C75.9688 6.70312 75.8281 6.78125 75.6719 6.84375C75.5469 6.875 75.4062 6.84375 75.25 6.75C75.0625 6.875 74.9062 6.9375 74.7812 6.9375C74.5938 6.9375 74.4219 6.90625 74.2656 6.84375C74.1094 6.78125 73.9375 6.75 73.75 6.75C73.5312 6.75 73.3125 6.78125 73.0938 6.84375C72.875 6.875 72.6406 6.875 72.3906 6.84375C72.1406 7.09375 71.8594 7.1875 71.5469 7.125C71.3906 7.3125 71.2344 7.42188 71.0781 7.45312C70.9531 7.48437 70.8281 7.53125 70.7031 7.59375C70.6094 7.625 70.5156 7.71875 70.4219 7.875C70.3281 8 70.2344 8.23437 70.1406 8.57812C69.9219 8.48438 69.7656 8.4375 69.6719 8.4375C69.5781 8.40625 69.5 8.42187 69.4375 8.48438C69.4062 8.51562 69.3438 8.57812 69.25 8.67188C69.1875 8.73438 69.0625 8.79687 68.875 8.85938L68.6875 9.32812C68.4062 9.48438 68.1719 9.6875 67.9844 9.9375C67.8281 10.1875 67.5938 10.375 67.2812 10.5C67.1875 10.75 67.0781 10.9375 66.9531 11.0625C66.8281 11.1875 66.6875 11.3438 66.5312 11.5312C66.5312 11.6875 66.4531 11.875 66.2969 12.0938C66.2656 12.2812 66.1719 12.4062 66.0156 12.4688C65.9531 12.7188 65.9062 12.9844 65.875 13.2656C65.875 13.5156 65.7969 13.7656 65.6406 14.0156C65.5781 14.1094 65.5156 14.2188 65.4531 14.3438C65.4219 14.4688 65.4062 14.5781 65.4062 14.6719C65.4688 14.9844 65.4688 15.1875 65.4062 15.2812C65.375 15.375 65.3438 15.4688 65.3125 15.5625C65.2812 15.625 65.2656 15.7188 65.2656 15.8438C65.2969 15.9375 65.375 16.1094 65.5 16.3594H64.9844C64.9844 16.4844 64.9844 16.6094 64.9844 16.7344C65.0156 16.8594 64.9531 16.9844 64.7969 17.1094C64.7969 17.2344 64.8125 17.3594 64.8438 17.4844C64.875 17.5781 64.8906 17.7031 64.8906 17.8594C64.7969 17.9531 64.75 18.0312 64.75 18.0938C64.75 18.125 64.7188 18.1875 64.6562 18.2812C64.7188 18.4688 64.7344 18.6719 64.7031 18.8906C64.7031 19.1094 64.7031 19.3281 64.7031 19.5469C64.4531 19.8594 64.3594 20.2656 64.4219 20.7656C64.3906 21.0781 64.3281 21.2969 64.2344 21.4219C64.1719 21.7969 64.1562 22.0156 64.1875 22.0781C64.25 22.1406 64.3125 22.2812 64.375 22.5C64.4375 22.6562 64.4531 22.8125 64.4219 22.9688C64.4219 23.0938 64.4375 23.2344 64.4688 23.3906C64.75 23.7344 64.8906 24.125 64.8906 24.5625C64.9219 24.9688 65.0156 25.2656 65.1719 25.4531C65.2656 25.5781 65.3594 25.7031 65.4531 25.8281C65.5781 25.9219 65.6094 26.0469 65.5469 26.2031C65.7031 26.3906 65.7812 26.5312 65.7812 26.625C65.7812 26.7188 65.7812 26.7969 65.7812 26.8594C65.7812 26.9219 65.8125 26.9844 65.875 27.0469C65.9375 27.0781 66.0938 27.1406 66.3438 27.2344C66.2812 27.2969 66.2031 27.375 66.1094 27.4688C66.0469 27.5312 66 27.6094 65.9688 27.7031C66.0938 27.7656 66.1719 27.8594 66.2031 27.9844C66.2344 28.0781 66.3125 28.1562 66.4375 28.2188C66.5312 28.5625 66.5781 28.9062 66.5781 29.25C66.9531 29.4062 67.1719 29.6406 67.2344 29.9531C67.3281 30.2344 67.5312 30.5 67.8438 30.75C68 30.7188 68.1719 30.7969 68.3594 30.9844C68.4531 31.1406 68.5625 31.2188 68.6875 31.2188C68.8125 31.1875 68.9219 31.1719 69.0156 31.1719L68.9688 31.6406C69.5625 31.8594 70.0156 32.0469 70.3281 32.2031C70.6719 32.3281 71.1094 32.3438 71.6406 32.25C71.7969 32.4375 71.9219 32.5625 72.0156 32.625C72.1094 32.6562 72.1875 32.6562 72.25 32.625C72.3438 32.5938 72.4531 32.5625 72.5781 32.5312C72.7031 32.5 72.8594 32.4844 73.0469 32.4844C73.2344 32.7031 73.3906 32.7969 73.5156 32.7656C73.6406 32.7031 73.8281 32.6719 74.0781 32.6719C74.1719 32.6719 74.2656 32.6875 74.3594 32.7188C74.4531 32.75 74.5469 32.7656 74.6406 32.7656C74.7969 32.7969 74.9375 32.7344 75.0625 32.5781C75.2188 32.3906 75.4688 32.4062 75.8125 32.625C76.0625 32.4688 76.3281 32.3906 76.6094 32.3906C76.9219 32.3594 77.2188 32.3594 77.5 32.3906C77.8438 32.0469 78.2656 31.8281 78.7656 31.7344C79.2969 31.6094 79.7812 31.5 80.2188 31.4062C80.4688 31.125 80.8438 30.9531 81.3438 30.8906C81.5312 30.7031 81.7344 30.5625 81.9531 30.4688C82.1719 30.3438 82.4062 30.2188 82.6562 30.0938C82.7188 29.9375 82.7812 29.7969 82.8438 29.6719C82.9062 29.5156 82.9688 29.3594 83.0312 29.2031C83.5625 28.7344 83.9531 28.2969 84.2031 27.8906C84.4844 27.4844 84.7188 27.0469 84.9062 26.5781C85.0625 26.5156 85.1562 26.4688 85.1875 26.4375C85.2188 26.375 85.2656 26.2969 85.3281 26.2031C85.4219 25.7969 85.4531 25.4375 85.4219 25.125C85.5781 24.7812 85.7031 24.5469 85.7969 24.4219C85.9219 24.2969 85.9062 24.0312 85.75 23.625C86.0938 23.4062 86.2656 23.1562 86.2656 22.875C86.2969 22.5625 86.3125 22.2344 86.3125 21.8906C86.5 21.5781 86.6094 21.3438 86.6406 21.1875C86.6719 21.0312 86.6562 20.7812 86.5938 20.4375C86.7812 20.0625 86.8438 19.6094 86.7812 19.0781C86.75 18.5156 86.7344 18.0156 86.7344 17.5781C86.7344 17.4219 86.6875 17.3281 86.5938 17.2969C86.5312 17.2344 86.5 17.1406 86.5 17.0156L86.6406 16.6875ZM99.8594 21.1406C99.8906 21.2031 99.9062 21.3281 99.9062 21.5156C99.9375 21.6719 99.9531 21.8438 99.9531 22.0312C99.9844 22.2188 99.9844 22.4062 99.9531 22.5938C99.9531 22.75 99.9375 22.8438 99.9062 22.875C99.9688 23 100.047 23.1094 100.141 23.2031C100.266 23.2969 100.359 23.4062 100.422 23.5312C100.359 23.6875 100.359 23.8438 100.422 24C100.484 24.125 100.516 24.2656 100.516 24.4219C100.422 24.5469 100.391 24.6406 100.422 24.7031C100.484 24.7656 100.531 24.8281 100.562 24.8906C100.781 25.2344 100.875 25.5 100.844 25.6875C100.844 25.8438 100.906 26.0469 101.031 26.2969C101.219 26.7969 101.344 27.1094 101.406 27.2344C101.469 27.3281 101.594 27.5 101.781 27.75V28.2656C101.906 28.4219 102.016 28.5938 102.109 28.7812C102.203 28.9688 102.297 29.1406 102.391 29.2969C102.547 29.4531 102.703 29.5938 102.859 29.7188C103.016 29.8438 103.078 30.0312 103.047 30.2812C103.203 30.4688 103.375 30.6562 103.562 30.8438C103.781 31 103.969 31.1875 104.125 31.4062C104.469 31.4062 104.75 31.5625 104.969 31.875H105.484C105.734 32.125 106.016 32.2969 106.328 32.3906C106.641 32.4844 106.969 32.5625 107.312 32.625C107.25 32.875 107.219 33.0156 107.219 33.0469C107.25 33.0469 107.266 33.0625 107.266 33.0938C107.703 32.9375 108.047 32.9531 108.297 33.1406C108.578 33.3281 108.891 33.4219 109.234 33.4219C109.609 33.3281 109.828 33.2969 109.891 33.3281C109.953 33.3594 110.016 33.3906 110.078 33.4219C110.203 33.4219 110.328 33.3906 110.453 33.3281C110.578 33.2344 110.703 33.1875 110.828 33.1875C110.922 33.1875 111 33.2031 111.062 33.2344C111.156 33.2656 111.234 33.2812 111.297 33.2812C111.547 33.3125 111.922 33.2656 112.422 33.1406C112.922 32.9844 113.266 32.8281 113.453 32.6719C113.797 32.7969 114.047 32.8281 114.203 32.7656C114.391 32.6719 114.625 32.6094 114.906 32.5781C115.094 32.4219 115.281 32.2969 115.469 32.2031C115.656 32.1094 115.859 32 116.078 31.875C116.172 31.8438 116.234 31.7969 116.266 31.7344C116.328 31.6406 116.406 31.5625 116.5 31.5C116.719 31.4688 116.922 31.3906 117.109 31.2656C117.297 31.1094 117.484 30.9844 117.672 30.8906L118.094 30.4688C118.219 30.4688 118.344 30.3906 118.469 30.2344C118.594 30.0469 118.719 29.8438 118.844 29.625C118.969 29.375 119.078 29.1406 119.172 28.9219C119.297 28.7031 119.406 28.5469 119.5 28.4531V27.75C119.75 27.7188 119.906 27.6406 119.969 27.5156C120.062 27.3594 120.219 27.2188 120.438 27.0938C120.406 26.9375 120.422 26.8125 120.484 26.7188C120.578 26.625 120.594 26.5 120.531 26.3438C120.594 26.25 120.625 26.1719 120.625 26.1094C120.656 26.0156 120.703 25.9375 120.766 25.875C120.984 25.5312 120.984 25.1406 120.766 24.7031C120.547 24.2344 120.328 23.8906 120.109 23.6719C119.953 23.6406 119.812 23.6406 119.688 23.6719C119.562 23.6719 119.422 23.7031 119.266 23.7656C118.984 23.6094 118.688 23.5312 118.375 23.5312C118.062 23.5 117.766 23.4062 117.484 23.25C117.141 23.25 116.891 23.25 116.734 23.25C116.578 23.25 116.359 23.1562 116.078 22.9688C115.578 22.9688 115.172 23 114.859 23.0625C114.578 23.0938 114.312 23.0312 114.062 22.875C113.906 22.9062 113.781 22.9844 113.688 23.1094C113.625 23.2031 113.469 23.25 113.219 23.25C112.906 23.0625 112.562 23 112.188 23.0625C111.812 23.125 111.453 23.1875 111.109 23.25C110.953 23.3438 110.844 23.3906 110.781 23.3906C110.75 23.3906 110.75 23.5 110.781 23.7188C110.594 23.6562 110.406 23.5938 110.219 23.5312C110.031 23.4688 109.828 23.4375 109.609 23.4375C109.484 23.4375 109.359 23.4531 109.234 23.4844C109.109 23.5156 108.969 23.5312 108.812 23.5312C108.562 23.5312 108.312 23.4844 108.062 23.3906C107.844 23.2656 107.609 23.1875 107.359 23.1562C107.203 22.7188 107.047 22.3438 106.891 22.0312C106.766 21.7188 106.703 21.3125 106.703 20.8125C106.828 20.7812 106.906 20.7344 106.938 20.6719C107 20.6094 107.109 20.5781 107.266 20.5781C107.359 20.3281 107.516 20.1719 107.734 20.1094C107.984 20.0469 108.188 19.9375 108.344 19.7812C108.531 19.7812 108.719 19.7969 108.906 19.8281C109.094 19.8594 109.281 19.875 109.469 19.875C109.781 19.875 110.078 19.8125 110.359 19.6875C110.672 19.5312 110.969 19.5 111.25 19.5938C111.375 19.5312 111.5 19.4844 111.625 19.4531C111.75 19.3906 111.859 19.3281 111.953 19.2656C112.109 19.2969 112.359 19.3281 112.703 19.3594C113.047 19.3594 113.281 19.3281 113.406 19.2656H113.922C114.047 19.2344 114.156 19.2031 114.25 19.1719C114.375 19.1094 114.5 19.0781 114.625 19.0781C114.938 19.0781 115.266 19.125 115.609 19.2188C115.953 19.3125 116.297 19.3906 116.641 19.4531C117.016 19.5156 117.359 19.5469 117.672 19.5469C117.984 19.5156 118.266 19.3906 118.516 19.1719C118.703 19.2344 118.891 19.2812 119.078 19.3125C119.297 19.3438 119.516 19.3594 119.734 19.3594C119.984 19.3594 120.219 19.2656 120.438 19.0781C120.688 18.8906 120.984 18.8906 121.328 19.0781C121.672 18.9219 122.078 18.8594 122.547 18.8906C123.016 18.8906 123.438 18.9219 123.812 18.9844C124 19.1406 124.141 19.2969 124.234 19.4531C124.359 19.6094 124.547 19.7344 124.797 19.8281C124.828 19.9844 124.844 20.1406 124.844 20.2969C124.875 20.4219 124.938 20.5625 125.031 20.7188C124.969 20.8438 124.906 20.9688 124.844 21.0938C124.812 21.1875 124.766 21.2969 124.703 21.4219C124.859 21.8594 125.016 22.2812 125.172 22.6875C125.328 23.0938 125.344 23.5469 125.219 24.0469C125.281 24.2344 125.359 24.4219 125.453 24.6094C125.547 24.7656 125.625 24.9531 125.688 25.1719C125.531 25.5469 125.312 25.8594 125.031 26.1094C125.031 26.6406 124.953 27.1562 124.797 27.6562C124.641 28.1562 124.547 28.6719 124.516 29.2031C124.359 29.2031 124.25 29.2656 124.188 29.3906C124.125 29.4844 124.078 29.5938 124.047 29.7188C124.016 29.8125 123.969 29.9219 123.906 30.0469C123.844 30.1406 123.734 30.1875 123.578 30.1875C123.641 30.2812 123.672 30.375 123.672 30.4688C123.703 30.5625 123.656 30.6406 123.531 30.7031C123.469 30.8594 123.375 30.9688 123.25 31.0312C123.156 31.0625 123.047 31.1094 122.922 31.1719C122.922 31.3906 122.828 31.5781 122.641 31.7344C122.453 31.8906 122.328 32.0781 122.266 32.2969C121.922 32.3594 121.734 32.4062 121.703 32.4375C121.672 32.4688 121.609 32.5156 121.516 32.5781V33.0938C121.266 33.1562 121.031 33.25 120.812 33.375C120.625 33.5 120.516 33.7188 120.484 34.0312C120.234 34.0312 120.062 34.0312 119.969 34.0312C119.875 34.0312 119.797 34.0469 119.734 34.0781C119.703 34.1094 119.656 34.1719 119.594 34.2656C119.562 34.3594 119.484 34.4844 119.359 34.6406C119.109 34.7656 118.844 34.8594 118.562 34.9219C118.281 34.9844 118.109 35.1875 118.047 35.5312C117.734 35.5938 117.422 35.6562 117.109 35.7188C116.797 35.7812 116.516 35.9219 116.266 36.1406H115.75C115.344 36.4531 114.953 36.6875 114.578 36.8438C114.359 36.9375 114.141 37 113.922 37.0312C113.703 37.0938 113.5 37.2031 113.312 37.3594C113.125 37.3594 112.984 37.25 112.891 37.0312C112.609 37 112.438 36.9688 112.375 36.9375C112.312 36.9062 112.266 36.8906 112.234 36.8906C112.203 36.8906 112.156 36.9062 112.094 36.9375C112.062 36.9688 111.984 36.9844 111.859 36.9844C111.578 36.8906 111.375 36.9062 111.25 37.0312C111 37.125 110.75 37.125 110.5 37.0312C110.281 36.9688 110.094 37.0625 109.938 37.3125C109.438 37.0625 108.922 36.9531 108.391 36.9844C107.891 37.0156 107.375 37.0469 106.844 37.0781C106.688 36.7969 106.484 36.6094 106.234 36.5156C105.984 36.4219 105.719 36.375 105.438 36.375C105.438 36.2188 105.391 36.1094 105.297 36.0469C105.234 35.9844 105.141 35.9375 105.016 35.9062C104.922 35.875 104.812 35.8438 104.688 35.8125C104.594 35.75 104.531 35.6562 104.5 35.5312C104.094 35.4688 103.703 35.3906 103.328 35.2969C102.984 35.2031 102.688 34.9844 102.438 34.6406C102.125 34.4219 101.922 34.3125 101.828 34.3125C101.672 34.25 101.547 34.1875 101.453 34.125C101.391 34.0312 101.328 33.9531 101.266 33.8906C101.203 33.7969 101.109 33.7344 100.984 33.7031C100.891 33.6406 100.734 33.625 100.516 33.6562C100.453 33.5 100.359 33.3594 100.234 33.2344C100.141 33.1094 100.062 32.9688 100 32.8125C99.7812 32.75 99.6719 32.7031 99.6719 32.6719C99.6719 32.6094 99.6406 32.5469 99.5781 32.4844C99.5156 32.4219 99.4219 32.375 99.2969 32.3438C99.1719 32.2812 99.0781 32.2344 99.0156 32.2031C98.9531 31.9531 98.8281 31.75 98.6406 31.5938C98.4531 31.4062 98.3594 31.1719 98.3594 30.8906C98.2969 30.8281 98.2188 30.7969 98.125 30.7969C98.0312 30.7656 97.9531 30.7188 97.8906 30.6562C97.9531 30.5 97.9531 30.4062 97.8906 30.375C97.8594 30.3125 97.75 30.25 97.5625 30.1875C97.625 29.9062 97.625 29.6562 97.5625 29.4375C97.5312 29.1875 97.4688 28.9531 97.375 28.7344C97.2812 28.5156 97.1719 28.2969 97.0469 28.0781C96.9531 27.8281 96.8906 27.5781 96.8594 27.3281C96.7969 27.2031 96.75 27.1094 96.7188 27.0469C96.7188 26.9844 96.625 26.9688 96.4375 27C96.4062 26.8438 96.4062 26.75 96.4375 26.7188C96.4688 26.6875 96.5156 26.6094 96.5781 26.4844C96.5781 26.3906 96.5156 26.2344 96.3906 26.0156C96.2969 25.7969 96.2031 25.6562 96.1094 25.5938C96.1094 25.25 96.0625 24.9062 95.9688 24.5625C95.9062 24.2188 95.75 23.9219 95.5 23.6719C95.5625 23.3281 95.5781 23.0156 95.5469 22.7344C95.5469 22.4531 95.4531 22.1562 95.2656 21.8438C95.3281 21.6875 95.3906 21.5 95.4531 21.2812C95.5469 21.0312 95.5938 20.8281 95.5938 20.6719C95.5625 19.9844 95.5469 19.4062 95.5469 18.9375C95.5469 18.4375 95.6406 17.9688 95.8281 17.5312C95.6719 17.2188 95.6094 16.9844 95.6406 16.8281C95.7031 16.6406 95.75 16.4688 95.7812 16.3125C95.8125 16.125 95.8125 15.9531 95.7812 15.7969C95.75 15.6406 95.625 15.5156 95.4062 15.4219C95.375 15.2344 95.375 15.125 95.4062 15.0938C95.4688 15.0625 95.5625 15 95.6875 14.9062C95.6875 14.1875 95.7969 13.5938 96.0156 13.125C96.2656 12.6562 96.3438 12.1875 96.25 11.7188C96.3438 11.4063 96.4375 11.2031 96.5312 11.1094C96.6562 10.9844 96.6875 10.7344 96.625 10.3594C96.9062 10.2656 97.0938 10.1562 97.1875 10.0312C97.3125 9.875 97.4844 9.71875 97.7031 9.5625C97.7344 9.28125 97.8125 9.03125 97.9375 8.8125C98.0625 8.5625 98.2656 8.39062 98.5469 8.29688C98.5469 8.04687 98.5938 7.85937 98.6875 7.73438C98.8125 7.57812 98.875 7.375 98.875 7.125C99.0625 6.8125 99.1875 6.60938 99.25 6.51562C99.3125 6.42188 99.3281 6.26562 99.2969 6.04688C99.4219 5.95312 99.5781 5.82813 99.7656 5.67188C99.9531 5.48438 100.125 5.29688 100.281 5.10938C100.469 4.89063 100.625 4.6875 100.75 4.5C100.906 4.28125 100.984 4.09375 100.984 3.9375C101.203 3.96875 101.328 3.95313 101.359 3.89062C101.422 3.79688 101.531 3.75 101.688 3.75C101.75 3.6875 101.766 3.60938 101.734 3.51562C101.734 3.42188 101.734 3.34375 101.734 3.28125C102.422 3.09375 102.969 2.75 103.375 2.25C103.719 2.25 103.969 2.20312 104.125 2.10938C104.312 2.01562 104.531 1.89063 104.781 1.73438C105.156 1.82812 105.469 1.8125 105.719 1.6875C105.969 1.53125 106.266 1.45312 106.609 1.45312C106.828 1.45312 107.031 1.48437 107.219 1.54688C107.438 1.57812 107.656 1.59375 107.875 1.59375C108.094 1.59375 108.312 1.53125 108.531 1.40625C108.719 1.5 108.953 1.54688 109.234 1.54688C109.516 1.54688 109.781 1.53125 110.031 1.5C110.312 1.46875 110.562 1.46875 110.781 1.5C111.031 1.5 111.234 1.57812 111.391 1.73438C111.547 1.67187 111.656 1.60938 111.719 1.54688C111.781 1.48437 111.891 1.45312 112.047 1.45312C112.297 1.54688 112.562 1.625 112.844 1.6875C113.156 1.75 113.422 1.89063 113.641 2.10938C113.859 2.04687 114.062 2.01562 114.25 2.01562C114.438 1.98438 114.656 2.03125 114.906 2.15625C115.062 2.15625 115.156 2.125 115.188 2.0625C115.25 1.96875 115.344 1.89063 115.469 1.82812C115.875 2.01562 116.109 2.10938 116.172 2.10938C116.266 2.07813 116.375 2.09375 116.5 2.15625C116.625 2.21875 116.719 2.3125 116.781 2.4375C116.875 2.53125 116.969 2.60937 117.062 2.67188C117.156 2.73438 117.281 2.82813 117.438 2.95312C117.625 3.04688 117.828 3.14062 118.047 3.23438C118.266 3.32812 118.469 3.40625 118.656 3.46875C118.875 3.53125 119.031 3.54687 119.125 3.51562C119.25 3.70312 119.312 3.875 119.312 4.03125C119.562 4 119.734 4.03125 119.828 4.125C119.953 4.21875 120.062 4.32813 120.156 4.45312C120.25 4.54688 120.359 4.64062 120.484 4.73438C120.609 4.82812 120.812 4.85937 121.094 4.82812C121.156 5.17188 121.266 5.4375 121.422 5.625C121.578 5.8125 121.828 5.9375 122.172 6C122.109 6.1875 122.141 6.29688 122.266 6.32812C122.422 6.35937 122.469 6.48438 122.406 6.70312C122.5 6.92187 122.656 7.07812 122.875 7.17188C123.094 7.23438 123.219 7.4375 123.25 7.78125C123.375 7.8125 123.484 7.84375 123.578 7.875C123.703 7.90625 123.844 7.95312 124 8.01562C123.938 8.35938 123.844 8.64063 123.719 8.85938C123.625 9.04688 123.641 9.3125 123.766 9.65625C123.578 9.8125 123.453 9.96875 123.391 10.125C123.328 10.2813 123.125 10.3594 122.781 10.3594C122.688 10.4219 122.625 10.4844 122.594 10.5469C122.562 10.6094 122.484 10.6719 122.359 10.7344C122.078 10.6719 121.844 10.6563 121.656 10.6875C121.469 10.7187 121.25 10.8125 121 10.9688C120.75 10.9062 120.5 10.8125 120.25 10.6875C120.031 10.5625 119.891 10.375 119.828 10.125C119.484 9.96875 119.203 9.75 118.984 9.46875C118.766 9.1875 118.5 8.95312 118.188 8.76562C118.156 8.54688 118.109 8.42187 118.047 8.39062C118.016 8.32812 118 8.25 118 8.15625C117.75 7.96875 117.594 7.79688 117.531 7.64062C117.312 7.64062 117.156 7.59375 117.062 7.5C117 7.40625 116.844 7.39062 116.594 7.45312C116.531 7.29687 116.438 7.1875 116.312 7.125C116.188 7.03125 116.094 6.92187 116.031 6.79688C115.75 6.67188 115.469 6.57813 115.188 6.51562C114.906 6.42188 114.641 6.28125 114.391 6.09375C114.172 6.03125 113.938 5.98437 113.688 5.95312C113.469 5.92188 113.281 5.82813 113.125 5.67188C113.062 5.67188 112.984 5.70312 112.891 5.76562C112.828 5.79687 112.719 5.8125 112.562 5.8125C112.406 5.65625 112.188 5.54688 111.906 5.48438C111.656 5.42187 111.453 5.29688 111.297 5.10938C110.953 5.07813 110.625 5.10938 110.312 5.20312C110.031 5.26563 109.719 5.29688 109.375 5.29688C109.125 5.29688 108.906 5.23437 108.719 5.10938C108.531 4.95312 108.328 4.875 108.109 4.875C107.953 4.875 107.812 4.90625 107.688 4.96875C107.594 5 107.484 5.01562 107.359 5.01562C107.234 5.01562 107.125 5.01562 107.031 5.01562C106.938 4.98438 106.844 4.96875 106.75 4.96875C106.656 4.96875 106.547 4.96875 106.422 4.96875C106.328 4.96875 106.234 4.98438 106.141 5.01562C106.047 5.07813 106 5.23437 106 5.48438C105.594 5.64063 105.281 5.875 105.062 6.1875C104.875 6.46875 104.719 6.8125 104.594 7.21875C104.281 7.25 104.078 7.35938 103.984 7.54688C103.891 7.73438 103.719 7.875 103.469 7.96875C103.5 8.1875 103.453 8.34375 103.328 8.4375C103.234 8.5 103.203 8.64063 103.234 8.85938C103.078 9.01563 102.906 9.17187 102.719 9.32812C102.562 9.48438 102.391 9.64062 102.203 9.79688C102.234 9.95313 102.203 10.0781 102.109 10.1719C102.047 10.2656 102.047 10.4062 102.109 10.5938C101.891 10.7187 101.703 10.875 101.547 11.0625C101.391 11.2188 101.188 11.3438 100.938 11.4375C101.031 11.7813 100.922 12.0312 100.609 12.1875C100.578 12.5312 100.562 12.8594 100.562 13.1719C100.594 13.4531 100.578 13.75 100.516 14.0625C100.453 14.3125 100.375 14.5469 100.281 14.7656C100.188 14.9531 100.156 15.1719 100.188 15.4219C100.25 15.6406 100.25 15.7812 100.188 15.8438C100.156 15.875 100.234 15.9375 100.422 16.0312C100.359 16.125 100.297 16.2188 100.234 16.3125C100.203 16.375 100.156 16.4688 100.094 16.5938C100.094 17.1875 100.125 17.6875 100.188 18.0938C100.281 18.5 100.203 18.9844 99.9531 19.5469C99.9531 19.6406 99.9844 19.7344 100.047 19.8281C100.141 19.8906 100.188 19.9688 100.188 20.0625C100.188 20.1562 100.156 20.2344 100.094 20.2969C100.062 20.3594 100.016 20.4375 99.9531 20.5312C99.9844 20.6875 100.031 20.7812 100.094 20.8125C100.156 20.8438 100.078 20.9531 99.8594 21.1406ZM148.141 32.4844C148.109 32.5469 148.047 32.6719 147.953 32.8594C147.859 33.0156 147.75 33.1875 147.625 33.375C147.5 33.5625 147.391 33.7344 147.297 33.8906C147.203 34.0156 147.141 34.0938 147.109 34.125C146.953 34.25 146.75 34.3438 146.5 34.4062C146.281 34.4375 146.078 34.5156 145.891 34.6406C145.672 34.5781 145.484 34.5781 145.328 34.6406C145.203 34.7031 145.062 34.7344 144.906 34.7344C144.812 34.7344 144.719 34.7656 144.625 34.8281C144.562 34.8594 144.484 34.8906 144.391 34.9219C144.234 34.9844 144.047 35 143.828 34.9688C143.609 34.9375 143.453 35.0312 143.359 35.25C143.172 35.1562 143.031 35.1094 142.938 35.1094C142.875 35.1094 142.75 35.1562 142.562 35.25C142.156 35.0938 141.875 35.0938 141.719 35.25C141.625 35.1562 141.484 35.1406 141.297 35.2031C141.109 35.2344 140.984 35.3125 140.922 35.4375C140.797 35.3438 140.672 35.2656 140.547 35.2031C140.422 35.1406 140.312 35.0469 140.219 34.9219C139.781 35.1094 139.25 35.2031 138.625 35.2031C138.031 35.1719 137.484 35.1875 136.984 35.25C136.547 35.2812 136.109 35.3438 135.672 35.4375C135.266 35.5312 134.859 35.5312 134.453 35.4375C134.297 35.4688 134.094 35.5781 133.844 35.7656C133.531 35.6719 133.25 35.5469 133 35.3906C132.75 35.2344 132.547 35.0156 132.391 34.7344C132.516 34.4219 132.5 34.1562 132.344 33.9375C132.188 33.7188 132.141 33.4062 132.203 33C132.359 32.8125 132.547 32.6875 132.766 32.625C132.984 32.5312 133.141 32.3594 133.234 32.1094C133.453 32.0469 133.719 32.0156 134.031 32.0156C134.344 32.0156 134.578 31.9375 134.734 31.7812C135.047 31.8438 135.266 31.8906 135.391 31.9219C135.547 31.9531 135.672 31.9531 135.766 31.9219C135.859 31.8906 135.938 31.8281 136 31.7344C136.062 31.6406 136.188 31.4844 136.375 31.2656C136.312 31.1094 136.234 31 136.141 30.9375C136.047 30.8438 135.953 30.75 135.859 30.6562C135.922 30.5 135.906 30.4062 135.812 30.375C135.719 30.3125 135.672 30.2344 135.672 30.1406C135.672 29.9531 135.734 29.875 135.859 29.9062C135.984 29.9062 136.047 29.7344 136.047 29.3906C136.047 29.2969 136.031 29.2031 136 29.1094C136 28.9844 135.953 28.8906 135.859 28.8281C135.922 28.6719 135.984 28.5156 136.047 28.3594C136.109 28.1719 136.188 28 136.281 27.8438C136.156 27.75 136.078 27.6094 136.047 27.4219C136.016 27.2344 136 27.0312 136 26.8125C136 26.5938 135.984 26.3906 135.953 26.2031C135.953 26.0156 135.891 25.8438 135.766 25.6875C135.766 25.5312 135.828 25.3281 135.953 25.0781C135.766 24.4219 135.672 23.6875 135.672 22.875C135.703 22.0312 135.594 21.3125 135.344 20.7188C135.656 20.3125 135.75 19.9062 135.625 19.5C135.5 19.0938 135.438 18.6719 135.438 18.2344C135.438 17.9219 135.5 17.6406 135.625 17.3906C135.781 17.1094 135.719 16.8281 135.438 16.5469C135.531 16.3594 135.594 16.125 135.625 15.8438C135.656 15.5312 135.672 15.2344 135.672 14.9531C135.672 14.6406 135.625 14.3438 135.531 14.0625C135.469 13.7812 135.375 13.5625 135.25 13.4062C135.344 13.375 135.391 13.3125 135.391 13.2188C135.422 13.125 135.469 13.0469 135.531 12.9844C135.469 12.9219 135.422 12.8438 135.391 12.75C135.391 12.6562 135.344 12.6094 135.25 12.6094C135.406 12.2344 135.406 11.9844 135.25 11.8594C135.125 11.7031 135.188 11.5469 135.438 11.3906C135.438 11.2031 135.391 11.0625 135.297 10.9688C135.234 10.8438 135.219 10.6719 135.25 10.4531C135.188 10.3906 135.203 10.2813 135.297 10.125C135.422 9.9375 135.484 9.76563 135.484 9.60938C135.484 9.26562 135.438 8.9375 135.344 8.625C135.281 8.3125 135.25 7.98438 135.25 7.64062C135.25 7.51563 135.266 7.40625 135.297 7.3125C135.328 7.1875 135.344 7.0625 135.344 6.9375C135.344 6.78125 135.281 6.60938 135.156 6.42188C135.062 6.20313 134.953 6.03125 134.828 5.90625C134.359 5.90625 133.953 6.03125 133.609 6.28125C133.234 6.15625 132.922 6.1875 132.672 6.375C132.453 6.53125 132.203 6.60938 131.922 6.60938C131.766 6.60938 131.625 6.5625 131.5 6.46875C131.375 6.34375 131.234 6.25 131.078 6.1875C131.109 6.03125 131.094 5.92188 131.031 5.85938C131 5.76562 130.984 5.64063 130.984 5.48438C130.734 5.20312 130.578 5.03125 130.516 4.96875C130.453 4.90625 130.375 4.8125 130.281 4.6875C130.375 4.4375 130.453 4.20312 130.516 3.98438C130.609 3.73437 130.734 3.48438 130.891 3.23438C131.266 3.23438 131.578 3.14062 131.828 2.95312C132.109 2.76562 132.469 2.70312 132.906 2.76562C133.031 2.70312 133.141 2.64063 133.234 2.57812C133.328 2.51562 133.422 2.4375 133.516 2.34375C133.734 2.40625 133.969 2.42187 134.219 2.39062C134.469 2.35938 134.672 2.23437 134.828 2.01562C134.984 2.04687 135.141 2.07813 135.297 2.10938C135.484 2.10938 135.656 2.10938 135.812 2.10938C136.312 2.10938 136.594 2.04687 136.656 1.92188C136.75 1.76562 136.953 1.5625 137.266 1.3125C137.578 1.34375 137.859 1.42188 138.109 1.54688C138.391 1.64062 138.656 1.76562 138.906 1.92188C139.25 1.89063 139.672 1.85937 140.172 1.82812C140.703 1.76562 141.094 1.5625 141.344 1.21875C141.594 1.21875 141.844 1.28125 142.094 1.40625C142.344 1.5 142.594 1.54688 142.844 1.54688C143 1.54688 143.109 1.59375 143.172 1.6875C143.234 1.75 143.297 1.82812 143.359 1.92188C143.641 1.82812 143.906 1.875 144.156 2.0625C144.438 2.25 144.75 2.34375 145.094 2.34375C145.219 2.71875 145.234 3.10938 145.141 3.51562C145.078 3.92187 145.094 4.3125 145.188 4.6875C144.938 4.75 144.688 4.84375 144.438 4.96875C144.188 5.09375 143.969 5.26563 143.781 5.48438C143.594 5.48438 143.422 5.5 143.266 5.53125C143.109 5.5625 142.969 5.65625 142.844 5.8125C142.312 5.65625 141.766 5.57812 141.203 5.57812C140.672 5.54688 140.141 5.625 139.609 5.8125C139.578 6.125 139.531 6.4375 139.469 6.75C139.438 7.03125 139.422 7.32813 139.422 7.64062C139.359 7.98438 139.344 8.20312 139.375 8.29688C139.406 8.35938 139.422 8.4375 139.422 8.53125C139.422 8.625 139.406 8.71875 139.375 8.8125C139.344 8.875 139.328 8.95312 139.328 9.04688C139.328 9.20313 139.359 9.34375 139.422 9.46875C139.484 9.5625 139.516 9.6875 139.516 9.84375C139.516 10.0625 139.469 10.2813 139.375 10.5C139.312 10.6875 139.281 10.8906 139.281 11.1094C139.281 11.2969 139.297 11.5 139.328 11.7188C139.391 11.9062 139.422 12.0938 139.422 12.2812C139.422 12.625 139.391 12.9375 139.328 13.2188C139.297 13.4688 139.359 13.7656 139.516 14.1094C139.359 14.2031 139.297 14.3438 139.328 14.5312C139.391 14.7188 139.344 14.8594 139.188 14.9531C139.25 15.1094 139.297 15.2812 139.328 15.4688C139.359 15.625 139.453 15.75 139.609 15.8438C139.516 16.1562 139.469 16.4844 139.469 16.8281C139.5 17.1406 139.516 17.4531 139.516 17.7656C139.516 17.8906 139.547 18 139.609 18.0938C139.672 18.1562 139.734 18.2188 139.797 18.2812C139.734 18.4062 139.688 18.5312 139.656 18.6562C139.625 18.75 139.578 18.8594 139.516 18.9844C139.578 19.1719 139.578 19.375 139.516 19.5938C139.484 19.7812 139.547 19.9531 139.703 20.1094C139.578 20.2031 139.5 20.3281 139.469 20.4844C139.438 20.6406 139.391 20.7812 139.328 20.9062C139.422 21.0625 139.484 21.25 139.516 21.4688C139.547 21.6875 139.484 21.875 139.328 22.0312C139.484 22.3438 139.547 22.5625 139.516 22.6875C139.516 22.7812 139.516 22.875 139.516 22.9688C139.516 23.125 139.562 23.2188 139.656 23.25C139.75 23.25 139.828 23.3281 139.891 23.4844C139.766 23.6406 139.734 23.8125 139.797 24C139.891 24.1562 139.859 24.2812 139.703 24.375C139.828 24.5 139.906 24.6406 139.938 24.7969C139.969 24.9531 139.984 25.125 139.984 25.3125C139.984 25.4688 139.969 25.6406 139.938 25.8281C139.938 26.0156 139.969 26.1719 140.031 26.2969C139.812 26.6719 139.75 26.9062 139.844 27C139.938 27.0625 140.031 27.1406 140.125 27.2344C140.031 27.7969 140.203 28.2656 140.641 28.6406C140.484 28.7656 140.406 28.9688 140.406 29.25C140.438 29.5 140.406 29.7031 140.312 29.8594C140.406 30.1094 140.484 30.3438 140.547 30.5625C140.641 30.7812 140.703 31.0156 140.734 31.2656C140.859 31.3594 140.984 31.3906 141.109 31.3594C141.234 31.2969 141.375 31.2656 141.531 31.2656C141.625 31.2656 141.703 31.2812 141.766 31.3125C141.859 31.3438 141.953 31.3594 142.047 31.3594C142.359 31.2344 142.547 31.1875 142.609 31.2188C142.703 31.25 142.781 31.2656 142.844 31.2656C143.375 31.0469 143.797 30.9375 144.109 30.9375C144.422 30.9062 144.609 30.7188 144.672 30.375C144.922 30.4375 145.203 30.4531 145.516 30.4219C145.828 30.3906 146.094 30.4688 146.312 30.6562C146.469 30.6875 146.594 30.6719 146.688 30.6094C146.812 30.5156 146.953 30.4688 147.109 30.4688C147.141 30.625 147.203 30.7656 147.297 30.8906C147.391 31.0156 147.484 31.1406 147.578 31.2656C147.672 31.3906 147.734 31.5312 147.766 31.6875C147.797 31.8125 147.781 31.9844 147.719 32.2031C147.781 32.2969 147.828 32.3906 147.859 32.4844C147.891 32.5469 147.984 32.5469 148.141 32.4844ZM171.297 2.85938H172.094C172.25 3.07812 172.422 3.21875 172.609 3.28125C172.828 3.3125 173.031 3.40625 173.219 3.5625C173.312 3.625 173.391 3.67188 173.453 3.70312C173.516 3.70312 173.578 3.70312 173.641 3.70312C173.703 3.70312 173.781 3.73437 173.875 3.79688C173.969 3.85938 174.094 3.96875 174.25 4.125L174.625 4.54688C174.781 4.64062 174.922 4.71875 175.047 4.78125C175.172 4.84375 175.281 4.95312 175.375 5.10938C175.531 5.14062 175.641 5.1875 175.703 5.25C175.766 5.3125 175.875 5.32812 176.031 5.29688C176.312 5.67188 176.609 6.01563 176.922 6.32812C177.234 6.64062 177.594 6.92187 178 7.17188C178 7.26562 178.047 7.40625 178.141 7.59375C178.266 7.78125 178.391 7.96875 178.516 8.15625C178.672 8.34375 178.828 8.51562 178.984 8.67188C179.141 8.79687 179.266 8.875 179.359 8.90625C179.297 9.15625 179.266 9.29688 179.266 9.32812C179.297 9.32812 179.344 9.45312 179.406 9.70312C179.5 9.82812 179.594 9.95313 179.688 10.0781C179.781 10.1719 179.891 10.2813 180.016 10.4062C180.234 10.6563 180.344 10.8594 180.344 11.0156C180.375 11.1719 180.547 11.375 180.859 11.625C180.828 11.9062 180.812 12.0781 180.812 12.1406C180.844 12.2031 180.875 12.2656 180.906 12.3281C181.062 12.4844 181.172 12.6719 181.234 12.8906C181.328 13.1094 181.484 13.2969 181.703 13.4531C181.703 13.8906 181.781 14.3281 181.938 14.7656C182.094 15.2031 182.156 15.6406 182.125 16.0781C182.219 16.2031 182.281 16.3125 182.312 16.4062C182.344 16.5 182.359 16.5938 182.359 16.6875C182.391 16.7812 182.438 16.875 182.5 16.9688C182.562 17.0312 182.672 17.125 182.828 17.25C182.766 17.3125 182.688 17.4062 182.594 17.5312C182.531 17.625 182.5 17.7031 182.5 17.7656C182.562 18.0469 182.578 18.2656 182.547 18.4219C182.547 18.5781 182.469 18.7812 182.312 19.0312C182.438 19.3125 182.484 19.5469 182.453 19.7344C182.453 19.9219 182.422 20.0938 182.359 20.25C182.297 20.4062 182.25 20.5781 182.219 20.7656C182.219 20.9219 182.281 21.1094 182.406 21.3281C182.375 21.5469 182.328 21.6875 182.266 21.75C182.203 21.8125 182.156 21.875 182.125 21.9375C182.094 21.9688 182.078 22.0469 182.078 22.1719C182.078 22.2969 182.125 22.5312 182.219 22.875C182.125 23 182.047 23.125 181.984 23.25C181.953 23.3438 181.891 23.4531 181.797 23.5781C181.766 23.7656 181.703 23.9844 181.609 24.2344C181.547 24.4844 181.469 24.7344 181.375 24.9844C181.312 25.2344 181.25 25.4688 181.188 25.6875C181.125 25.875 181.094 26.0156 181.094 26.1094C180.938 26.5781 180.734 27.0156 180.484 27.4219C180.297 27.5469 180.078 27.7031 179.828 27.8906C179.891 27.9531 179.953 28.0312 180.016 28.125C180.109 28.1875 180.188 28.25 180.25 28.3125C180.031 28.5938 179.828 28.9062 179.641 29.25C179.484 29.5625 179.266 29.8281 178.984 30.0469C178.922 30.2969 178.906 30.4531 178.938 30.5156L178.422 30.8438C178.391 31.0312 178.328 31.1875 178.234 31.3125C178.172 31.4062 178.125 31.5625 178.094 31.7812C177.875 31.875 177.719 32 177.625 32.1562C177.562 32.2812 177.5 32.4688 177.438 32.7188C177.125 32.6875 176.969 32.6875 176.969 32.7188C176.969 32.75 176.844 32.8281 176.594 32.9531C176.406 33.1406 176.188 33.3594 175.938 33.6094C175.688 33.8594 175.438 34.0312 175.188 34.125C174.938 34.1875 174.703 34.3125 174.484 34.5C174.297 34.6562 174.109 34.8125 173.922 34.9688C173.578 34.9688 173.297 35.0312 173.078 35.1562C172.859 35.25 172.609 35.375 172.328 35.5312C172.016 35.6875 171.688 35.7969 171.344 35.8594C171.031 35.9219 170.719 36.0312 170.406 36.1875C170.312 36.1875 170.203 36.1875 170.078 36.1875C169.984 36.1875 169.891 36.1562 169.797 36.0938C169.641 36.25 169.516 36.3438 169.422 36.375C169.328 36.4375 169.156 36.4844 168.906 36.5156C168.469 36.7031 168.219 36.7812 168.156 36.75C168.094 36.75 167.969 36.6875 167.781 36.5625C167.5 36.7188 167.25 36.7969 167.031 36.7969C166.844 36.8281 166.641 36.8281 166.422 36.7969C166.234 36.7969 166.031 36.7969 165.812 36.7969C165.625 36.8281 165.438 36.8906 165.25 36.9844C165 36.9531 164.828 36.9062 164.734 36.8438C164.641 36.8125 164.547 36.7812 164.453 36.75C164.391 36.75 164.297 36.7656 164.172 36.7969C164.078 36.8281 163.891 36.9219 163.609 37.0781C163.453 37.0469 163.297 37 163.141 36.9375C163.016 36.9062 162.891 36.8438 162.766 36.75C162.359 36.7188 161.953 36.625 161.547 36.4688C161.172 36.3438 160.844 36.1406 160.562 35.8594C160.469 35.8594 160.375 35.8438 160.281 35.8125C160.188 35.75 160.094 35.7188 160 35.7188C159.75 35.75 159.594 35.7188 159.531 35.625C159.5 35.5312 159.453 35.4531 159.391 35.3906C159.172 35.3281 159.031 35.2812 158.969 35.25C158.938 35.2188 158.797 35.2344 158.547 35.2969C158.172 35.0469 157.984 34.8906 157.984 34.8281C157.984 34.7656 157.812 34.7656 157.469 34.8281C157.375 34.5781 157.266 34.3906 157.141 34.2656C157.016 34.1094 156.875 33.9844 156.719 33.8906C156.594 33.7656 156.453 33.6562 156.297 33.5625C156.172 33.4375 156.062 33.2656 155.969 33.0469C155.719 32.9531 155.469 32.8594 155.219 32.7656C155 32.6719 154.766 32.5781 154.516 32.4844C154.453 32.2656 154.453 32.0312 154.516 31.7812C154.359 31.5 154.266 31.2812 154.234 31.125C154.234 30.9688 154.062 30.8125 153.719 30.6562C153.781 30.4688 153.797 30.3281 153.766 30.2344C153.766 30.1094 153.734 30 153.672 29.9062C153.641 29.8125 153.594 29.7031 153.531 29.5781C153.5 29.4531 153.484 29.2969 153.484 29.1094C153.266 28.7031 153.141 28.3281 153.109 27.9844C153.109 27.6094 153.078 27.3438 153.016 27.1875C152.922 27.0312 152.828 26.9062 152.734 26.8125C152.641 26.7188 152.609 26.5625 152.641 26.3438C152.578 26.2188 152.516 26.1094 152.453 26.0156C152.391 25.9219 152.312 25.8281 152.219 25.7344C152.188 25.1719 151.984 24.7031 151.609 24.3281C151.703 24.1719 151.766 24.0312 151.797 23.9062C151.828 23.75 151.734 23.625 151.516 23.5312C151.516 23.375 151.516 23.2344 151.516 23.1094C151.547 22.9844 151.609 22.875 151.703 22.7812C151.672 22.625 151.641 22.5 151.609 22.4062C151.609 22.3125 151.656 22.1875 151.75 22.0312C151.688 21.6875 151.609 21.4531 151.516 21.3281C151.516 21.1094 151.516 20.9844 151.516 20.9531C151.547 20.8906 151.609 20.7656 151.703 20.5781C151.703 20.4219 151.672 20.2812 151.609 20.1562C151.578 20 151.625 19.8438 151.75 19.6875C151.656 19.2188 151.641 18.75 151.703 18.2812C151.766 17.8125 151.828 17.3438 151.891 16.875C152.047 17.0938 152.125 17.3281 152.125 17.5781C152.125 17.8281 152.094 18.0469 152.031 18.2344C151.812 18.0469 151.734 17.8281 151.797 17.5781C151.859 17.2969 151.938 17.0156 152.031 16.7344C152.125 16.4531 152.203 16.1875 152.266 15.9375C152.359 15.6875 152.422 15.5469 152.453 15.5156C152.391 15.2969 152.406 15.125 152.5 15C152.594 14.875 152.672 14.7344 152.734 14.5781C152.609 14.3281 152.562 14.1406 152.594 14.0156C152.656 13.8906 152.766 13.75 152.922 13.5938C152.984 13.0625 153.109 12.5469 153.297 12.0469C153.484 11.5469 153.625 11.0313 153.719 10.5C154 10.1875 154.219 9.95313 154.375 9.79688C154.531 9.60938 154.656 9.29688 154.75 8.85938C155 8.60937 155.141 8.4375 155.172 8.34375C155.203 8.25 155.297 8.15625 155.453 8.0625C155.578 8 155.688 7.90625 155.781 7.78125C155.875 7.625 156 7.53125 156.156 7.5C156.219 7.40625 156.266 7.29687 156.297 7.17188C156.359 7.04688 156.422 6.92187 156.484 6.79688C156.766 6.79688 156.969 6.73437 157.094 6.60938C157.469 6.14062 157.75 5.875 157.938 5.8125C158.125 5.75 158.297 5.53125 158.453 5.15625C158.734 5.09375 158.922 5 159.016 4.875C159.141 4.71875 159.328 4.60938 159.578 4.54688C159.609 4.45312 159.688 4.3125 159.812 4.125C160.219 4.125 160.547 4.03125 160.797 3.84375C161.078 3.65625 161.406 3.54687 161.781 3.51562C162.031 3.35937 162.266 3.23438 162.484 3.14062C162.703 3.01563 162.953 2.95312 163.234 2.95312C163.391 2.85938 163.609 2.78125 163.891 2.71875C164.172 2.625 164.469 2.5625 164.781 2.53125C165.094 2.46875 165.391 2.4375 165.672 2.4375C165.984 2.4375 166.219 2.46875 166.375 2.53125C166.531 2.40625 166.641 2.375 166.703 2.4375C166.797 2.5 166.922 2.53125 167.078 2.53125C167.203 2.53125 167.375 2.46875 167.594 2.34375C167.844 2.1875 168.094 2.10938 168.344 2.10938C168.531 2.10938 168.672 2.14062 168.766 2.20312C168.891 2.26563 168.984 2.32812 169.047 2.39062C169.141 2.45313 169.234 2.51562 169.328 2.57812C169.422 2.64063 169.562 2.67188 169.75 2.67188C170.062 2.67188 170.328 2.625 170.547 2.53125C170.797 2.4375 171.047 2.54688 171.297 2.85938ZM178.328 16.6875C178.234 16.625 178.156 16.5625 178.094 16.5C178.031 16.4062 177.969 16.3125 177.906 16.2188C177.906 15.8125 177.828 15.4375 177.672 15.0938C177.516 14.75 177.406 14.375 177.344 13.9688C177.219 13.9062 177.141 13.8281 177.109 13.7344C177.078 13.6094 177.047 13.4844 177.016 13.3594C176.797 13.1094 176.609 12.9062 176.453 12.75C176.297 12.5938 176.219 12.3906 176.219 12.1406C176.125 12.2031 176 12.0781 175.844 11.7656C175.719 11.4531 175.625 11.25 175.562 11.1562C175.5 11.0313 175.422 10.9219 175.328 10.8281C175.266 10.7344 175.203 10.625 175.141 10.5C174.984 10.4375 174.828 10.375 174.672 10.3125C174.516 10.2188 174.406 10.0938 174.344 9.9375C174.031 9.875 173.797 9.76563 173.641 9.60938C173.641 9.35937 173.562 9.17187 173.406 9.04688C173.25 8.92188 173.141 8.75 173.078 8.53125C172.859 8.46875 172.688 8.375 172.562 8.25C172.531 8.125 172.484 8.04687 172.422 8.01562C172.359 7.98438 172.281 7.92188 172.188 7.82812C171.906 7.79688 171.688 7.70313 171.531 7.54688C171.375 7.39062 171.156 7.375 170.875 7.5C170.688 7.375 170.578 7.25 170.547 7.125C170.328 7.0625 170.172 7.04688 170.078 7.07812C169.984 7.07812 169.875 7.04688 169.75 6.98438C169.469 6.70312 169.234 6.54687 169.047 6.51562C168.891 6.45312 168.719 6.42188 168.531 6.42188C168.375 6.60938 168.125 6.67188 167.781 6.60938C167.656 6.70312 167.516 6.78125 167.359 6.84375C167.234 6.875 167.094 6.84375 166.938 6.75C166.75 6.875 166.594 6.9375 166.469 6.9375C166.281 6.9375 166.109 6.90625 165.953 6.84375C165.797 6.78125 165.625 6.75 165.438 6.75C165.219 6.75 165 6.78125 164.781 6.84375C164.562 6.875 164.328 6.875 164.078 6.84375C163.828 7.09375 163.547 7.1875 163.234 7.125C163.078 7.3125 162.922 7.42188 162.766 7.45312C162.641 7.48437 162.516 7.53125 162.391 7.59375C162.297 7.625 162.203 7.71875 162.109 7.875C162.016 8 161.922 8.23437 161.828 8.57812C161.609 8.48438 161.453 8.4375 161.359 8.4375C161.266 8.40625 161.188 8.42187 161.125 8.48438C161.094 8.51562 161.031 8.57812 160.938 8.67188C160.875 8.73438 160.75 8.79687 160.562 8.85938L160.375 9.32812C160.094 9.48438 159.859 9.6875 159.672 9.9375C159.516 10.1875 159.281 10.375 158.969 10.5C158.875 10.75 158.766 10.9375 158.641 11.0625C158.516 11.1875 158.375 11.3438 158.219 11.5312C158.219 11.6875 158.141 11.875 157.984 12.0938C157.953 12.2812 157.859 12.4062 157.703 12.4688C157.641 12.7188 157.594 12.9844 157.562 13.2656C157.562 13.5156 157.484 13.7656 157.328 14.0156C157.266 14.1094 157.203 14.2188 157.141 14.3438C157.109 14.4688 157.094 14.5781 157.094 14.6719C157.156 14.9844 157.156 15.1875 157.094 15.2812C157.062 15.375 157.031 15.4688 157 15.5625C156.969 15.625 156.953 15.7188 156.953 15.8438C156.984 15.9375 157.062 16.1094 157.188 16.3594H156.672C156.672 16.4844 156.672 16.6094 156.672 16.7344C156.703 16.8594 156.641 16.9844 156.484 17.1094C156.484 17.2344 156.5 17.3594 156.531 17.4844C156.562 17.5781 156.578 17.7031 156.578 17.8594C156.484 17.9531 156.438 18.0312 156.438 18.0938C156.438 18.125 156.406 18.1875 156.344 18.2812C156.406 18.4688 156.422 18.6719 156.391 18.8906C156.391 19.1094 156.391 19.3281 156.391 19.5469C156.141 19.8594 156.047 20.2656 156.109 20.7656C156.078 21.0781 156.016 21.2969 155.922 21.4219C155.859 21.7969 155.844 22.0156 155.875 22.0781C155.938 22.1406 156 22.2812 156.062 22.5C156.125 22.6562 156.141 22.8125 156.109 22.9688C156.109 23.0938 156.125 23.2344 156.156 23.3906C156.438 23.7344 156.578 24.125 156.578 24.5625C156.609 24.9688 156.703 25.2656 156.859 25.4531C156.953 25.5781 157.047 25.7031 157.141 25.8281C157.266 25.9219 157.297 26.0469 157.234 26.2031C157.391 26.3906 157.469 26.5312 157.469 26.625C157.469 26.7188 157.469 26.7969 157.469 26.8594C157.469 26.9219 157.5 26.9844 157.562 27.0469C157.625 27.0781 157.781 27.1406 158.031 27.2344C157.969 27.2969 157.891 27.375 157.797 27.4688C157.734 27.5312 157.688 27.6094 157.656 27.7031C157.781 27.7656 157.859 27.8594 157.891 27.9844C157.922 28.0781 158 28.1562 158.125 28.2188C158.219 28.5625 158.266 28.9062 158.266 29.25C158.641 29.4062 158.859 29.6406 158.922 29.9531C159.016 30.2344 159.219 30.5 159.531 30.75C159.688 30.7188 159.859 30.7969 160.047 30.9844C160.141 31.1406 160.25 31.2188 160.375 31.2188C160.5 31.1875 160.609 31.1719 160.703 31.1719L160.656 31.6406C161.25 31.8594 161.703 32.0469 162.016 32.2031C162.359 32.3281 162.797 32.3438 163.328 32.25C163.484 32.4375 163.609 32.5625 163.703 32.625C163.797 32.6562 163.875 32.6562 163.938 32.625C164.031 32.5938 164.141 32.5625 164.266 32.5312C164.391 32.5 164.547 32.4844 164.734 32.4844C164.922 32.7031 165.078 32.7969 165.203 32.7656C165.328 32.7031 165.516 32.6719 165.766 32.6719C165.859 32.6719 165.953 32.6875 166.047 32.7188C166.141 32.75 166.234 32.7656 166.328 32.7656C166.484 32.7969 166.625 32.7344 166.75 32.5781C166.906 32.3906 167.156 32.4062 167.5 32.625C167.75 32.4688 168.016 32.3906 168.297 32.3906C168.609 32.3594 168.906 32.3594 169.188 32.3906C169.531 32.0469 169.953 31.8281 170.453 31.7344C170.984 31.6094 171.469 31.5 171.906 31.4062C172.156 31.125 172.531 30.9531 173.031 30.8906C173.219 30.7031 173.422 30.5625 173.641 30.4688C173.859 30.3438 174.094 30.2188 174.344 30.0938C174.406 29.9375 174.469 29.7969 174.531 29.6719C174.594 29.5156 174.656 29.3594 174.719 29.2031C175.25 28.7344 175.641 28.2969 175.891 27.8906C176.172 27.4844 176.406 27.0469 176.594 26.5781C176.75 26.5156 176.844 26.4688 176.875 26.4375C176.906 26.375 176.953 26.2969 177.016 26.2031C177.109 25.7969 177.141 25.4375 177.109 25.125C177.266 24.7812 177.391 24.5469 177.484 24.4219C177.609 24.2969 177.594 24.0312 177.438 23.625C177.781 23.4062 177.953 23.1562 177.953 22.875C177.984 22.5625 178 22.2344 178 21.8906C178.188 21.5781 178.297 21.3438 178.328 21.1875C178.359 21.0312 178.344 20.7812 178.281 20.4375C178.469 20.0625 178.531 19.6094 178.469 19.0781C178.438 18.5156 178.422 18.0156 178.422 17.5781C178.422 17.4219 178.375 17.3281 178.281 17.2969C178.219 17.2344 178.188 17.1406 178.188 17.0156L178.328 16.6875Z" fill="white"/>
</svg>
