<svg width="96" height="96" viewBox="0 0 96 96" fill="none" xmlns="http://www.w3.org/2000/svg">
<g id="Group">
<path id="Vector" d="M63.8076 54.9026L91.1557 82.2507" stroke="#3FBCD7" stroke-width="5"/>
<path id="Vector_2" d="M54.9026 63.8079L82.2506 91.1559" stroke="#3FBCD7" stroke-width="5"/>
<path id="Vector_3" d="M82.2506 91.1558C83.4315 92.3366 85.0331 93.0001 86.7032 93.0001C88.3732 93.0001 89.9748 92.3366 91.1557 91.1558" stroke="#3FBCD7" stroke-width="5" stroke-linecap="round" stroke-linejoin="round"/>
<path id="Vector_4" d="M91.1557 82.2507C92.3366 83.4316 93 85.0332 93 86.7033C93 88.3733 92.3366 89.9749 91.1557 91.1558" stroke="#3FBCD7" stroke-width="5" stroke-linecap="round" stroke-linejoin="round"/>
<path id="Vector_5" d="M3.00002 31.3358C3.00002 35.0569 3.73294 38.7415 5.15695 42.1794C6.58095 45.6172 8.66815 48.7409 11.2994 51.3722C13.9306 54.0034 17.0543 56.0906 20.4921 57.5146C23.93 58.9386 27.6147 59.6715 31.3358 59.6715C35.0569 59.6715 38.7415 58.9386 42.1794 57.5146C45.6172 56.0906 48.741 54.0034 51.3722 51.3722C54.0034 48.7409 56.0906 45.6172 57.5146 42.1794C58.9386 38.7415 59.6715 35.0569 59.6715 31.3358C59.6715 23.8206 56.6862 16.6133 51.3722 11.2993C46.0582 5.98537 38.8509 3 31.3358 3C27.6147 3 23.93 3.73293 20.4921 5.15693C17.0543 6.58094 13.9306 8.66813 11.2994 11.2993C8.66815 13.9306 6.58095 17.0543 5.15695 20.4921C3.73294 23.93 3.00002 27.6146 3.00002 31.3358Z" stroke="#3FBCD7" stroke-width="5" stroke-linecap="round" stroke-linejoin="round"/>
<path id="Vector_6" d="M63.8076 54.9026L54.9026 63.8077" stroke="#3FBCD7" stroke-width="5" stroke-linecap="round" stroke-linejoin="round"/>
<path id="Vector_7" d="M59.3551 59.3555L51.3722 51.3726" stroke="#3FBCD7" stroke-width="5" stroke-linecap="round" stroke-linejoin="round"/>
<path id="Vector_8" d="M71.4086 62.5034L62.5035 71.4085" stroke="#3FBCD7" stroke-width="5" stroke-linecap="round" stroke-linejoin="round"/>
<path id="Vector_9" d="M15.5937 31.3354C15.5937 35.5105 17.2522 39.5146 20.2044 42.4668C23.1566 45.419 27.1607 47.0775 31.3358 47.0775" stroke="#3FBCD7" stroke-width="5" stroke-linecap="round" stroke-linejoin="round"/>
</g>
</svg>
