<svg width="57" height="90" viewBox="0 0 57 90" fill="none" xmlns="http://www.w3.org/2000/svg">
<g id="Group">
<path id="Vector" d="M45 5.625C46.4918 5.625 47.9226 6.21763 48.9775 7.27252C50.0324 8.32742 50.625 9.75816 50.625 11.25V78.75C50.625 80.2418 50.0324 81.6726 48.9775 82.7275C47.9226 83.7824 46.4918 84.375 45 84.375H11.25C9.75816 84.375 8.32742 83.7824 7.27253 82.7275C6.21763 81.6726 5.625 80.2418 5.625 78.75V11.25C5.625 9.75816 6.21763 8.32742 7.27253 7.27252C8.32742 6.21763 9.75816 5.625 11.25 5.625H45ZM11.25 0C8.26631 0 5.40483 1.18526 3.29505 3.29505C1.18526 5.40483 0 8.26631 0 11.25V78.75C0 81.7337 1.18526 84.5952 3.29505 86.7049C5.40483 88.8147 8.26631 90 11.25 90H45C47.9837 90 50.8452 88.8147 52.9549 86.7049C55.0647 84.5952 56.25 81.7337 56.25 78.75V11.25C56.25 8.26631 55.0647 5.40483 52.9549 3.29505C50.8452 1.18526 47.9837 0 45 0L11.25 0Z" fill="#3FBCD7"/>
<path id="Vector_2" d="M28.125 78.75C29.6168 78.75 31.0476 78.1574 32.1025 77.1025C33.1574 76.0476 33.75 74.6168 33.75 73.125C33.75 71.6332 33.1574 70.2024 32.1025 69.1475C31.0476 68.0926 29.6168 67.5 28.125 67.5C26.6332 67.5 25.2024 68.0926 24.1475 69.1475C23.0926 70.2024 22.5 71.6332 22.5 73.125C22.5 74.6168 23.0926 76.0476 24.1475 77.1025C25.2024 78.1574 26.6332 78.75 28.125 78.75Z" fill="#3FBCD7"/>
</g>
</svg>
