<svg width="90" height="90" viewBox="0 0 90 90" fill="none" xmlns="http://www.w3.org/2000/svg">
<g id="uiw:pay">
<path id="Vector" d="M52.515 38.4165C52.1585 38.4141 51.8155 38.5528 51.5609 38.8023C51.3063 39.0519 51.1607 39.392 51.156 39.7485V49.7025C51.1607 50.0598 51.3069 50.4006 51.5625 50.6503C51.8181 50.8999 52.1622 51.0381 52.5195 51.0345H82.503C82.8603 51.0381 83.2044 50.8999 83.46 50.6503C83.7156 50.4006 83.8617 50.0598 83.8665 49.7025V39.7485C83.8617 39.3912 83.7156 39.0504 83.46 38.8007C83.2044 38.5511 82.8603 38.4129 82.503 38.4165H52.515ZM70.902 6.7545C75.051 6.9525 78.0345 7.7715 79.9245 9.5085C81.792 11.2275 82.7505 13.716 82.9395 17.01V26.4465C82.93 27.2501 82.6019 28.0171 82.0274 28.5791C81.4528 29.141 80.6786 29.4519 79.875 29.4435C79.4767 29.4483 79.0814 29.3745 78.7115 29.2265C78.3417 29.0784 78.0047 28.859 77.7197 28.5807C77.4348 28.3024 77.2074 27.9707 77.0506 27.6045C76.8938 27.2383 76.8107 26.8448 76.806 26.4465L76.8105 17.181C76.7115 15.471 76.302 14.409 75.717 13.869C75.15 13.347 73.422 12.879 70.7535 12.744H11.9115C9.495 12.834 7.9245 13.293 7.164 13.9455C6.579 14.445 6.138 15.822 6.1335 18.2025L6.12 71.1675C6.345 73.4805 6.8535 75.024 7.506 75.7935C8.001 76.3785 9.5355 76.9635 11.7945 77.2515H70.8165C73.5795 77.3055 75.2085 76.8915 75.7575 76.338C76.365 75.7215 76.806 74.1015 76.806 71.451V62.2485C76.806 60.597 78.1785 59.2515 79.875 59.2515C81.567 59.2515 82.9395 60.597 82.9395 62.2485V71.451C82.9395 75.501 82.1115 78.5295 80.172 80.496C78.174 82.521 74.997 83.331 70.7535 83.241L11.43 83.2275C7.3935 82.7595 4.5 81.6525 2.7765 79.614C1.215 77.769 0.3465 75.1365 0 71.4555V18.198C0.009 14.256 0.954 11.2905 3.123 9.4365C5.112 7.7265 7.983 6.894 11.7945 6.75H70.902V6.7545ZM82.503 32.4225C86.643 32.4225 90 35.703 90 39.7485V49.7025C90 53.748 86.643 57.0285 82.503 57.0285H52.5195C48.3795 57.0285 45.0225 53.7435 45.0225 49.7025V39.7485C45.0225 35.703 48.3795 32.4225 52.5195 32.4225H82.503ZM60.0165 41.1525C57.9465 41.1525 56.268 42.7725 56.268 44.766C56.268 46.764 57.9465 48.3795 60.0165 48.3795C62.0865 48.3795 63.765 46.7595 63.765 44.766C63.765 42.768 62.0865 41.148 60.0165 41.148V41.1525Z" fill="#3FBCD7"/>
</g>
</svg>
